<svg version="1.1" id="Layer_1" xmlns="http://www.w3.org/2000/svg" xmlns:xlink="http://www.w3.org/1999/xlink" x="0px" y="0px"
	 width="100%" viewBox="0 0 200 200" enable-background="new 0 0 200 200" xml:space="preserve">
<path fill="#728687" opacity="1.000000" stroke="none" 
	d="
M201.000000,123.000000 
	C201.000000,148.968185 201.000000,174.936386 201.000000,200.952286 
	C134.446732,200.952286 67.893425,200.952286 1.000000,200.952286 
	C1.000000,174.646744 1.000000,148.292038 1.313991,121.593765 
	C2.745080,122.438065 4.012649,123.517815 4.955850,124.830605 
	C13.800791,137.141388 24.985279,143.127304 40.667782,139.830490 
	C45.363010,138.843475 51.051373,139.696106 55.595680,141.470551 
	C65.337593,145.274551 75.026161,146.992294 85.386856,145.305740 
	C96.211578,143.543625 107.015953,141.624191 118.101089,143.833939 
	C121.601463,144.531723 125.394623,143.756683 129.053940,143.662125 
	C135.867981,143.486099 142.683167,143.150070 149.495926,143.192642 
	C155.142548,143.227936 160.788376,143.984650 166.431046,143.943329 
	C180.577118,143.839767 192.975143,140.490997 198.583969,125.397408 
	C198.942596,124.432266 200.174393,123.791611 201.000000,123.000000 
z"/>
<path fill="#728687" opacity="1.000000" stroke="none" 
	d="
M1.000000,83.000000 
	C1.000000,55.699726 1.000000,28.399456 1.000000,1.049592 
	C67.552940,1.049592 134.105927,1.049592 201.000000,1.049592 
	C201.000000,27.353247 201.000000,53.707966 200.699463,80.359261 
	C199.323776,78.474091 198.045044,76.367325 197.209137,74.097473 
	C193.780334,64.786819 187.393616,58.926590 177.399307,58.214180 
	C162.818436,57.174831 148.201172,56.590519 133.590927,56.035477 
	C120.665833,55.544456 107.728798,55.371391 94.797653,55.034309 
	C82.239632,54.706959 69.694725,55.061199 58.001060,60.177197 
	C51.908226,62.842823 45.790386,63.695103 39.488728,62.663170 
	C26.276342,60.499577 16.082230,65.200020 7.917545,75.372299 
	C5.772909,78.044266 3.314380,80.464279 1.000000,83.000000 
z"/>
<path fill="#748A8B" opacity="1.000000" stroke="none" 
	d="
M1.000000,83.467606 
	C3.314380,80.464279 5.772909,78.044266 7.917545,75.372299 
	C16.082230,65.200020 26.276342,60.499577 39.488728,62.663170 
	C45.790386,63.695103 51.908226,62.842823 58.001060,60.177197 
	C69.694725,55.061199 82.239632,54.706959 94.797653,55.034309 
	C107.728798,55.371391 120.665833,55.544456 133.590927,56.035477 
	C148.201172,56.590519 162.818436,57.174831 177.399307,58.214180 
	C187.393616,58.926590 193.780334,64.786819 197.209137,74.097473 
	C198.045044,76.367325 199.323776,78.474091 200.699463,80.827919 
	C201.000000,94.687561 201.000000,108.375122 201.000000,122.531342 
	C200.174393,123.791611 198.942596,124.432266 198.583969,125.397408 
	C192.975143,140.490997 180.577118,143.839767 166.431046,143.943329 
	C160.788376,143.984650 155.142548,143.227936 149.495926,143.192642 
	C142.683167,143.150070 135.867981,143.486099 129.053940,143.662125 
	C125.394623,143.756683 121.601463,144.531723 118.101089,143.833939 
	C107.015953,141.624191 96.211578,143.543625 85.386856,145.305740 
	C75.026161,146.992294 65.337593,145.274551 55.595680,141.470551 
	C51.051373,139.696106 45.363010,138.843475 40.667782,139.830490 
	C24.985279,143.127304 13.800791,137.141388 4.955850,124.830605 
	C4.012649,123.517815 2.745080,122.438065 1.313991,121.125107 
	C1.000000,115.311958 1.000000,109.623917 1.279576,103.687164 
	C2.495363,106.414886 3.495745,109.372887 4.357240,112.370789 
	C9.464552,130.143661 23.265589,138.244034 41.364922,134.883698 
	C45.813721,134.057724 51.176853,134.582657 55.312397,136.362335 
	C64.914055,140.494324 74.587677,143.235550 84.873207,140.820938 
	C97.836716,137.777649 110.787582,137.420120 123.923058,138.931793 
	C126.357140,139.211914 128.888840,138.509781 131.379623,138.457382 
	C137.699860,138.324402 144.024094,138.184921 150.343658,138.271286 
	C156.161758,138.350784 161.989014,139.096725 167.789352,138.894196 
	C186.686447,138.234329 195.568146,129.480957 195.835403,110.521461 
	C195.968536,101.077019 195.116562,91.555328 193.911469,82.171158 
	C192.351654,70.024811 185.064560,64.372337 172.782791,63.925812 
	C164.157516,63.612217 155.565231,62.473495 146.946198,61.877022 
	C140.978821,61.464066 134.992249,61.308739 129.011932,61.106979 
	C119.905373,60.799759 110.701157,61.285614 101.710648,60.113537 
	C86.819832,58.172245 72.374153,58.915154 58.579201,64.914764 
	C52.169292,67.702522 45.910694,68.493721 39.128078,67.388931 
	C27.801130,65.543930 18.093317,68.863159 11.432053,78.281151 
	C8.052933,83.058701 6.217393,88.928024 3.684069,94.303787 
	C2.789305,96.202492 1.894685,98.101257 1.000000,100.000000 
	C1.000000,94.645073 1.000000,89.290138 1.000000,83.467606 
z"/>
<path fill="#758E8F" opacity="1.000000" stroke="none" 
	d="
M1.000000,100.375000 
	C1.894685,98.101257 2.789305,96.202492 3.684069,94.303787 
	C6.217393,88.928024 8.052933,83.058701 11.432053,78.281151 
	C18.093317,68.863159 27.801130,65.543930 39.128078,67.388931 
	C45.910694,68.493721 52.169292,67.702522 58.579201,64.914764 
	C72.374153,58.915154 86.819832,58.172245 101.710648,60.113537 
	C110.701157,61.285614 119.905373,60.799759 129.011932,61.106979 
	C134.992249,61.308739 140.978821,61.464066 146.946198,61.877022 
	C155.565231,62.473495 164.157516,63.612217 172.782791,63.925812 
	C185.064560,64.372337 192.351654,70.024811 193.911469,82.171158 
	C195.116562,91.555328 195.968536,101.077019 195.835403,110.521461 
	C195.568146,129.480957 186.686447,138.234329 167.789352,138.894196 
	C161.989014,139.096725 156.161758,138.350784 150.343658,138.271286 
	C144.024094,138.184921 137.699860,138.324402 131.379623,138.457382 
	C128.888840,138.509781 126.357140,139.211914 123.923058,138.931793 
	C110.787582,137.420120 97.836716,137.777649 84.873207,140.820938 
	C74.587677,143.235550 64.914055,140.494324 55.312397,136.362335 
	C51.176853,134.582657 45.813721,134.057724 41.364922,134.883698 
	C23.265589,138.244034 9.464552,130.143661 4.357240,112.370789 
	C3.495745,109.372887 2.495363,106.414886 1.279576,103.219223 
	C1.000000,102.250000 1.000000,101.500000 1.000000,100.375000 
M7.997281,100.750305 
	C7.996721,101.500000 7.996161,102.249687 7.686149,103.618530 
	C7.455978,104.744972 7.225808,105.871422 6.747519,107.618134 
	C7.830809,110.413231 8.914100,113.208336 9.998585,116.501404 
	C9.998585,116.501404 9.999660,116.999367 10.097151,117.724297 
	C13.087072,127.405762 25.698828,135.557846 35.032444,133.095032 
	C42.808998,131.043091 50.329865,130.453339 58.000000,133.000000 
	C58.000000,133.000000 57.999203,133.001221 58.302860,133.570984 
	C59.536510,134.379013 60.770157,135.187042 62.752254,135.997238 
	C63.500465,135.998932 64.248680,136.000626 65.422371,136.577042 
	C70.687485,140.093552 76.312393,139.411026 82.665260,137.997330 
	C83.108749,137.996796 83.552238,137.996262 84.849709,137.989059 
	C93.900337,136.660355 102.950958,135.331650 112.666519,134.003647 
	C113.109825,134.003906 113.553123,134.004181 114.397079,134.537750 
	C116.264244,134.693222 118.131409,134.848679 120.873795,135.003983 
	C122.915932,135.003418 124.958061,135.002853 127.543289,135.261978 
	C128.696671,134.843048 129.850037,134.424133 131.752701,134.004654 
	C132.501999,134.003403 133.251297,134.002136 134.543442,134.260925 
	C135.696686,133.842545 136.849915,133.424149 138.890808,133.005371 
	C141.259628,133.005554 143.628448,133.005737 146.271973,133.457901 
	C147.180756,133.638596 148.089539,133.819305 149.858765,134.024292 
	C155.239899,134.348984 160.621033,134.673676 166.544312,135.259247 
	C167.696930,134.841583 168.849564,134.423904 170.869217,134.002960 
	C183.190460,133.628113 189.158035,129.650284 191.318893,118.924576 
	C194.055252,105.342316 193.069595,91.726967 188.783432,78.562187 
	C187.957947,76.026779 184.719177,74.277084 182.053085,71.812599 
	C180.398300,71.329086 178.743500,70.845573 176.896820,69.911263 
	C176.265167,69.607025 175.633499,69.302788 174.251709,68.997543 
	C173.501572,68.997116 172.751419,68.996696 171.547974,68.436646 
	C168.699371,68.291290 165.850754,68.145935 162.115219,67.999214 
	C158.077713,67.664345 154.040192,67.329475 149.800735,66.612556 
	C149.201019,66.408249 148.601288,66.203941 147.243332,65.949066 
	C141.495407,65.631775 135.747482,65.314491 129.517212,64.790535 
	C128.676712,65.191666 127.836205,65.592804 126.196579,65.994164 
	C125.131065,65.995064 124.065552,65.995972 122.313553,65.684387 
	C119.875587,65.788696 117.437630,65.893005 114.201012,65.997856 
	C113.135521,65.996803 112.070023,65.995750 110.633591,65.476601 
	C109.089012,65.317596 107.544441,65.158592 105.333374,64.999336 
	C104.889465,64.999077 104.445557,64.998817 103.545868,64.432007 
	C102.182785,63.921192 100.859665,63.178066 99.450409,62.935699 
	C86.196167,60.656208 73.059410,61.516251 60.856789,67.105865 
	C52.331520,71.011024 44.136826,71.575386 35.220341,69.698982 
	C31.232460,68.859764 26.851255,68.910393 23.502089,73.001991 
	C23.502089,73.001991 23.005587,73.004997 22.293507,73.114189 
	C13.821577,76.198830 5.857222,88.635765 7.096267,97.632492 
	C7.396051,98.421867 7.695836,99.211243 7.997281,100.750305 
z"/>
<path fill="#779495" opacity="1.000000" stroke="none" 
	d="
M145.997269,133.005920 
	C143.628448,133.005737 141.259628,133.005554 138.098312,133.025909 
	C136.204071,133.364594 135.102341,133.682724 134.000595,134.000854 
	C133.251297,134.002136 132.501999,134.003403 131.029297,134.025452 
	C129.204010,134.364929 128.102097,134.683609 127.000198,135.002304 
	C124.958061,135.002853 122.915932,135.003418 120.436981,134.751587 
	C120.000587,134.330872 120.001015,134.162582 120.355774,133.834915 
	C121.838730,133.431839 122.956596,133.104294 124.097702,132.957779 
	C132.927475,131.824097 141.761719,130.725388 150.916260,129.624390 
	C152.110565,129.551163 152.983185,129.469406 154.140915,129.680359 
	C160.152084,133.372192 170.707825,132.773331 175.499756,128.822754 
	C182.587326,128.838928 183.561981,127.986046 183.838715,121.274002 
	C183.966766,118.168221 183.736404,115.047661 183.718323,111.480499 
	C183.683990,107.377518 183.599899,103.727837 183.607849,99.658195 
	C183.410217,93.830307 183.120529,88.422379 182.882324,82.560234 
	C182.820435,78.792320 182.707077,75.478622 182.593704,72.164925 
	C184.719177,74.277084 187.957947,76.026779 188.783432,78.562187 
	C193.069595,91.726967 194.055252,105.342316 191.318893,118.924576 
	C189.158035,129.650284 183.190460,133.628113 170.087280,134.024826 
	C168.204300,134.363922 167.103226,134.681152 166.002167,134.998367 
	C160.621033,134.673676 155.239899,134.348984 149.148315,133.860703 
	C147.624329,133.466721 146.810806,133.236313 145.997269,133.005920 
z"/>
<path fill="#789192" opacity="1.000000" stroke="none" 
	d="
M23.998550,72.998474 
	C26.851255,68.910393 31.232460,68.859764 35.220341,69.698982 
	C44.136826,71.575386 52.331520,71.011024 60.856789,67.105865 
	C73.059410,61.516251 86.196167,60.656208 99.450409,62.935699 
	C100.859665,63.178066 102.182785,63.921192 103.439255,64.716187 
	C102.887169,65.002396 102.441696,65.004425 101.662506,65.084480 
	C100.219757,65.438683 99.110725,65.714851 97.829147,65.731552 
	C96.769135,64.983681 95.881676,64.495285 94.587677,64.007912 
	C92.119385,64.668289 90.057625,65.327652 87.596649,65.986786 
	C86.132874,65.986763 85.068298,65.986977 83.785156,65.710548 
	C81.713661,64.959373 79.860725,64.484840 77.743896,64.107010 
	C76.986687,64.470383 76.493362,64.737045 75.676643,65.071182 
	C67.565681,68.103622 59.778122,71.068596 51.563286,74.032242 
	C49.426369,74.027718 47.716724,74.024513 45.768936,73.900330 
	C44.687447,73.851982 43.844105,73.924614 42.667484,73.996742 
	C41.889874,73.994438 41.445545,73.992645 40.828892,73.731064 
	C39.769806,72.983299 38.883045,72.495316 37.621323,72.006973 
	C36.496452,72.005226 35.746536,72.003830 34.700493,71.855591 
	C32.937225,71.806908 31.470091,71.905075 29.669649,72.004379 
	C28.891933,72.006279 28.447523,72.007042 27.740278,72.105072 
	C26.985924,72.469070 26.494404,72.735786 25.668835,73.002380 
	C24.889376,73.000999 24.443964,72.999741 23.998550,72.998474 
z"/>
<path fill="#779495" opacity="1.000000" stroke="none" 
	d="
M172.001282,68.996277 
	C172.751419,68.996696 173.501572,68.997116 174.648651,69.430466 
	C175.077042,70.441696 175.108490,71.019997 175.080170,71.833336 
	C174.739944,72.457069 174.459503,72.845757 173.801666,73.039978 
	C169.573196,73.065536 165.722122,73.285568 161.560516,73.395294 
	C160.835678,73.139442 160.421371,72.993904 159.780426,72.581985 
	C158.520645,71.820999 157.535309,71.082954 156.447006,70.869339 
	C145.190475,68.659843 133.980103,66.012024 122.342133,68.322083 
	C120.711319,68.645790 118.785072,67.481102 117.387779,67.001755 
	C119.520004,66.664383 121.260017,66.330627 123.000038,65.996872 
	C124.065552,65.995972 125.131065,65.995064 126.912003,65.945297 
	C128.418137,65.596687 129.208847,65.296951 129.999557,64.997208 
	C135.747482,65.314491 141.495407,65.631775 147.858719,66.125137 
	C148.983627,66.532349 149.493164,66.763481 150.002686,66.994606 
	C154.040192,67.329475 158.077713,67.664345 162.922119,68.160980 
	C166.486435,68.547256 169.243866,68.771759 172.001282,68.996277 
z"/>
<path fill="#789192" opacity="1.000000" stroke="none" 
	d="
M57.999519,133.000519 
	C50.329865,130.453339 42.808998,131.043091 35.032444,133.095032 
	C25.698828,135.557846 13.087072,127.405762 10.300023,117.482765 
	C11.000714,117.493752 11.498533,117.746269 12.152185,118.298370 
	C15.858613,123.401855 19.248148,128.417542 26.204895,129.290649 
	C28.191727,130.269379 30.108841,131.782272 31.731834,131.514267 
	C36.548702,130.718765 41.249710,129.221680 46.371994,127.998566 
	C47.499928,127.998192 48.251881,127.998123 49.312157,128.165268 
	C52.079952,129.220505 54.539429,130.108521 56.999458,130.998260 
	C57.000011,131.000000 57.003662,131.000320 57.123329,131.252716 
	C57.495174,132.003586 57.747349,132.502060 57.999519,133.000519 
z"/>
<path fill="#89E0E1" opacity="1.000000" stroke="none" 
	d="
M174.179062,73.234444 
	C174.459503,72.845757 174.739944,72.457069 175.345642,71.712578 
	C176.143494,71.025208 176.616104,70.693634 177.088715,70.362061 
	C178.743500,70.845573 180.398300,71.329086 182.323395,71.988762 
	C182.707077,75.478622 182.820435,78.792320 182.570496,82.438133 
	C179.534286,81.524521 176.861389,80.278793 174.137848,78.651604 
	C174.012497,77.505318 173.937790,76.740479 173.916992,75.634552 
	C174.040283,74.607117 174.109665,73.920776 174.179062,73.234444 
z"/>
<path fill="#789192" opacity="1.000000" stroke="none" 
	d="
M6.995959,97.002441 
	C5.857222,88.635765 13.821577,76.198830 22.498508,73.353386 
	C21.218805,75.146324 19.570730,76.577606 18.290884,78.284912 
	C16.702692,80.403549 15.419287,82.750671 13.861647,85.318489 
	C13.141936,87.422028 12.564809,89.206169 11.737480,91.134232 
	C10.993908,91.853378 10.500536,92.428619 10.003969,93.002357 
	C10.000773,93.000862 9.997279,93.000992 9.805770,93.101135 
	C9.407762,93.800545 9.201263,94.399818 8.994471,95.332573 
	C8.992316,96.110710 8.990455,96.555351 8.656513,97.000214 
	C7.881609,97.001099 7.438784,97.001770 6.995959,97.002441 
z"/>
<path fill="#7A9799" opacity="1.000000" stroke="none" 
	d="
M14.004230,84.999100 
	C15.419287,82.750671 16.702692,80.403549 18.290884,78.284912 
	C19.570730,76.577606 21.218805,75.146324 22.854548,73.298790 
	C23.005587,73.004997 23.502089,73.001991 23.750320,73.000229 
	C24.443964,72.999741 24.889376,73.000999 25.872410,73.052826 
	C26.941057,72.738205 27.472084,72.373001 28.003113,72.007797 
	C28.447523,72.007042 28.891933,72.006279 29.966000,72.150185 
	C32.062641,72.197380 33.529633,72.099907 34.996620,72.002426 
	C35.746536,72.003830 36.496452,72.005226 37.622459,72.340111 
	C37.999897,73.118065 38.001247,73.562531 37.632927,74.167923 
	C32.097763,75.637878 26.723381,76.438530 21.843874,78.443535 
	C18.839945,79.677856 16.591747,82.751373 14.004230,84.999100 
z"/>
<path fill="#789192" opacity="1.000000" stroke="none" 
	d="
M112.001587,134.002945 
	C102.950958,135.331650 93.900337,136.660355 84.423187,137.659454 
	C83.997032,136.885834 83.997391,136.441818 84.331291,135.997360 
	C85.109482,135.996582 85.554131,135.996231 86.347176,135.975067 
	C87.796585,135.635818 88.897606,135.317383 90.331787,134.998093 
	C91.109161,134.996506 91.553383,134.995773 92.385757,134.944885 
	C96.515839,133.928909 100.257767,132.963058 104.374924,131.996979 
	C105.500641,131.996445 106.251152,131.996109 107.301292,132.151276 
	C109.067818,132.872162 110.534706,133.437546 112.001587,134.002945 
z"/>
<path fill="#789192" opacity="1.000000" stroke="none" 
	d="
M81.999931,137.997467 
	C76.312393,139.411026 70.687485,140.093552 65.543640,136.288376 
	C66.110039,135.998276 66.555176,135.996841 67.345062,136.057220 
	C71.126389,136.081711 74.562973,136.044403 78.276978,136.165833 
	C79.702904,136.882202 80.851418,137.439835 81.999931,137.997467 
z"/>
<path fill="#779495" opacity="1.000000" stroke="none" 
	d="
M112.334053,134.003296 
	C110.534706,133.437546 109.067818,132.872162 107.638580,131.999847 
	C111.118828,132.460373 114.561417,133.227859 117.603302,133.996262 
	C116.133873,133.999588 115.065147,134.002014 113.996429,134.004440 
	C113.553123,134.004181 113.109825,134.003906 112.334053,134.003296 
z"/>
<path fill="#779495" opacity="1.000000" stroke="none" 
	d="
M67.000313,135.995407 
	C66.555176,135.996841 66.110039,135.998276 65.330894,136.001007 
	C64.248680,136.000626 63.500465,135.998932 62.225624,135.711777 
	C60.465729,134.617950 59.232468,133.809586 57.999207,133.001221 
	C57.999203,133.001221 58.000000,133.000000 57.999760,133.000259 
	C57.747349,132.502060 57.495174,132.003586 57.493210,131.303452 
	C60.829048,132.732986 63.914680,134.364197 67.000313,135.995407 
z"/>
<path fill="#789192" opacity="1.000000" stroke="none" 
	d="
M171.774628,68.716461 
	C169.243866,68.771759 166.486435,68.547256 163.365585,68.161667 
	C165.850754,68.145935 168.699371,68.291290 171.774628,68.716461 
z"/>
<path fill="#789192" opacity="1.000000" stroke="none" 
	d="
M9.997391,116.003433 
	C8.914100,113.208336 7.830809,110.413231 7.123904,107.308083 
	C7.668472,106.998070 7.836654,106.998100 8.005097,107.331070 
	C8.005768,108.107880 8.006178,108.551750 8.104067,109.258926 
	C8.468743,110.014725 8.735938,110.507202 9.082413,111.333939 
	C9.443102,112.778214 9.724513,113.888229 10.003954,115.249542 
	C10.000453,115.668373 9.998921,115.835899 9.997391,116.003433 
z"/>
<path fill="#789192" opacity="1.000000" stroke="none" 
	d="
M122.656799,65.840630 
	C121.260017,66.330627 119.520004,66.664383 117.054939,67.001564 
	C115.886002,67.005165 115.442101,67.005333 114.998566,66.753464 
	C114.999176,66.333382 114.999420,66.165352 114.999664,65.997314 
	C117.437630,65.893005 119.875587,65.788696 122.656799,65.840630 
z"/>
<path fill="#779495" opacity="1.000000" stroke="none" 
	d="
M82.332596,137.997406 
	C80.851418,137.439835 79.702904,136.882202 78.592957,136.013245 
	C80.420265,135.800537 82.209007,135.899170 83.997749,135.997787 
	C83.997391,136.441818 83.997032,136.885834 83.996201,137.662811 
	C83.552238,137.996262 83.108749,137.996796 82.332596,137.997406 
z"/>
<path fill="#789192" opacity="1.000000" stroke="none" 
	d="
M114.196754,134.271088 
	C115.065147,134.002014 116.133873,133.999588 117.936157,133.996307 
	C119.113632,133.995056 119.557533,133.994675 120.001442,133.994308 
	C120.001015,134.162582 120.000587,134.330872 119.999367,134.751663 
	C118.131409,134.848679 116.264244,134.693222 114.196754,134.271088 
z"/>
<path fill="#779495" opacity="1.000000" stroke="none" 
	d="
M114.600342,65.997589 
	C114.999420,66.165352 114.999176,66.333382 114.682495,66.902679 
	C112.575363,66.872482 110.784676,66.441017 109.329056,66.007355 
	C110.110924,66.001663 110.557732,65.998184 111.004532,65.994698 
	C112.070023,65.995750 113.135521,65.996803 114.600342,65.997589 
z"/>
<path fill="#779495" opacity="1.000000" stroke="none" 
	d="
M8.004835,106.998131 
	C7.836654,106.998100 7.668472,106.998070 7.247963,106.997948 
	C7.225808,105.871422 7.455978,104.744972 8.174022,103.309677 
	C9.105210,103.002571 9.548527,103.004318 9.992624,103.380051 
	C9.993480,104.502373 9.993554,105.250694 9.744951,106.123779 
	C8.999128,106.498398 8.501982,106.748260 8.004835,106.998131 
z"/>
<path fill="#789192" opacity="1.000000" stroke="none" 
	d="
M110.819061,65.735657 
	C110.557732,65.998184 110.110924,66.001663 108.954605,66.006638 
	C107.495880,66.007698 106.746666,66.007278 105.998131,65.755035 
	C105.999153,65.335342 105.999504,65.167465 105.999863,64.999588 
	C107.544441,65.158592 109.089012,65.317596 110.819061,65.735657 
z"/>
<path fill="#779495" opacity="1.000000" stroke="none" 
	d="
M7.046113,97.317467 
	C7.438784,97.001770 7.881609,97.001099 8.908258,97.000923 
	C9.659819,97.001694 9.827555,97.001968 9.995026,97.376175 
	C9.993258,98.497726 9.991756,99.245354 9.657793,99.994827 
	C8.882095,99.997993 8.438859,99.999306 7.995622,100.000618 
	C7.695836,99.211243 7.396051,98.421867 7.046113,97.317467 
z"/>
<path fill="#789192" opacity="1.000000" stroke="none" 
	d="
M58.151031,133.286102 
	C59.232468,133.809586 60.465729,134.617950 61.851395,135.710693 
	C60.770157,135.187042 59.536510,134.379013 58.151031,133.286102 
z"/>
<path fill="#789192" opacity="1.000000" stroke="none" 
	d="
M134.272018,134.130890 
	C135.102341,133.682724 136.204071,133.364594 137.654480,133.026108 
	C136.849915,133.424149 135.696686,133.842545 134.272018,134.130890 
z"/>
<path fill="#779495" opacity="1.000000" stroke="none" 
	d="
M105.666618,64.999466 
	C105.999504,65.167465 105.999153,65.335342 105.726700,65.883926 
	C104.301804,65.845238 103.149010,65.425842 101.996223,65.006454 
	C102.441696,65.004425 102.887169,65.002396 103.667145,64.999458 
	C104.445557,64.998817 104.889465,64.999077 105.666618,64.999466 
z"/>
<path fill="#789192" opacity="1.000000" stroke="none" 
	d="
M127.271744,135.132141 
	C128.102097,134.683609 129.204010,134.364929 130.654663,134.025726 
	C129.850037,134.424133 128.696671,134.843048 127.271744,135.132141 
z"/>
<path fill="#789192" opacity="1.000000" stroke="none" 
	d="
M166.273239,135.128815 
	C167.103226,134.681152 168.204300,134.363922 169.653778,134.026459 
	C168.849564,134.423904 167.696930,134.841583 166.273239,135.128815 
z"/>
<path fill="#7A9799" opacity="1.000000" stroke="none" 
	d="
M7.996451,100.375458 
	C8.438859,99.999306 8.882095,99.997993 9.660204,100.371536 
	C9.993998,101.499619 9.992920,102.252838 9.991842,103.006058 
	C9.548527,103.004318 9.105210,103.002571 8.328748,103.000107 
	C7.996161,102.249687 7.996721,101.500000 7.996451,100.375458 
z"/>
<path fill="#789192" opacity="1.000000" stroke="none" 
	d="
M176.992767,70.136658 
	C176.616104,70.693634 176.143494,71.025208 175.405411,71.477539 
	C175.108490,71.019997 175.077042,70.441696 175.023712,69.430969 
	C175.633499,69.302788 176.265167,69.607025 176.992767,70.136658 
z"/>
<path fill="#789192" opacity="1.000000" stroke="none" 
	d="
M146.134613,133.231903 
	C146.810806,133.236313 147.624329,133.466721 148.718094,133.848557 
	C148.089539,133.819305 147.180756,133.638596 146.134613,133.231903 
z"/>
<path fill="#789192" opacity="1.000000" stroke="none" 
	d="
M129.758392,64.893875 
	C129.208847,65.296951 128.418137,65.596687 127.311569,65.945175 
	C127.836205,65.592804 128.676712,65.191666 129.758392,64.893875 
z"/>
<path fill="#779495" opacity="1.000000" stroke="none" 
	d="
M9.997988,116.252419 
	C9.998921,115.835899 10.000453,115.668373 10.263659,115.421677 
	C11.015674,116.227936 11.506014,117.113358 11.996352,117.998779 
	C11.498533,117.746269 11.000714,117.493752 10.251278,117.120300 
	C9.999660,116.999367 9.998585,116.501404 9.997988,116.252419 
z"/>
<path fill="#789192" opacity="1.000000" stroke="none" 
	d="
M149.901703,66.803581 
	C149.493164,66.763481 148.983627,66.532349 148.237839,66.150421 
	C148.601288,66.203941 149.201019,66.408249 149.901703,66.803581 
z"/>
<path fill="#7A9799" opacity="1.000000" stroke="none" 
	d="
M12.152185,118.298370 
	C11.506014,117.113358 11.015674,116.227936 10.265629,115.170380 
	C9.724513,113.888229 9.443102,112.778214 9.336251,111.333122 
	C9.680064,110.997299 9.849316,110.996552 10.312384,111.156792 
	C11.981399,113.331917 13.464103,115.281754 14.713634,117.371033 
	C20.930464,127.765945 34.318729,131.051819 42.346565,124.017426 
	C43.118156,124.013382 43.559143,124.011337 44.359627,124.167915 
	C48.147224,124.882538 51.575321,125.438545 55.333588,126.106735 
	C59.839806,128.210358 63.831993,131.035248 68.233177,132.006210 
	C75.617172,133.635193 83.311157,134.452423 90.393143,129.217621 
	C91.510506,129.115829 92.256287,129.057068 93.335037,129.097168 
	C100.118851,128.438400 106.569702,127.680786 113.400688,126.983162 
	C116.397385,126.958069 119.013962,126.872971 122.052002,126.822998 
	C123.317436,126.903320 124.161392,126.948517 125.248398,127.252563 
	C128.803604,129.664536 131.690292,129.399368 134.445068,125.990021 
	C137.956680,125.083771 141.050430,124.197113 144.383072,123.511002 
	C145.082489,124.128777 145.543030,124.545998 146.081253,125.197632 
	C146.329727,125.730705 146.575806,125.941498 147.079681,126.326111 
	C148.373001,127.597153 149.483795,128.606506 150.594589,129.615860 
	C141.761719,130.725388 132.927475,131.824097 124.097702,132.957779 
	C122.956596,133.104294 121.838730,133.431839 120.355774,133.834915 
	C119.557533,133.994675 119.113632,133.995056 118.336868,133.995392 
	C114.561417,133.227859 111.118828,132.460373 107.338943,131.844330 
	C106.251152,131.996109 105.500641,131.996445 104.044006,131.846100 
	C99.557785,132.795303 95.777695,133.895172 91.997597,134.995026 
	C91.553383,134.995773 91.109161,134.996506 90.060471,134.868286 
	C88.303581,135.158188 87.151176,135.577026 85.998779,135.995880 
	C85.554131,135.996231 85.109482,135.996582 84.331291,135.997360 
	C82.209007,135.899170 80.420265,135.800537 78.315536,135.854492 
	C74.562973,136.044403 71.126389,136.081711 67.345062,136.057220 
	C63.914680,134.364197 60.829048,132.732986 57.373539,131.051056 
	C57.003662,131.000320 57.000011,131.000000 56.837837,130.703278 
	C54.666176,127.858833 52.264416,126.560631 49.003838,127.998055 
	C48.251881,127.998123 47.499928,127.998192 46.050819,127.856239 
	C43.589893,127.855835 41.827595,128.020233 40.062054,128.134613 
	C35.375702,128.438232 30.687948,128.720261 26.000751,129.010880 
	C19.248148,128.417542 15.858613,123.401855 12.152185,118.298370 
z"/>
<path fill="#9DFCFD" opacity="1.000000" stroke="none" 
	d="
M183.515793,100.078156 
	C183.599899,103.727837 183.683990,107.377518 183.453690,111.659729 
	C179.973602,115.728600 178.746506,121.185013 172.857971,121.682953 
	C171.928558,119.647263 171.186417,117.907829 170.807404,116.048340 
	C178.024368,112.119179 179.600250,105.591240 175.010712,99.744247 
	C175.005402,99.325569 175.006226,99.158073 175.005676,98.744659 
	C175.004303,98.498749 175.006134,98.006927 174.994553,97.583191 
	C174.627090,94.764656 174.271225,92.369865 173.967285,89.568520 
	C174.093826,87.798981 174.168411,86.435989 174.581528,85.126984 
	C176.713013,87.579460 178.735703,89.844276 180.231812,92.415504 
	C181.619003,94.799515 182.443512,97.510910 183.515793,100.078156 
z"/>
<path fill="#90E8E9" opacity="1.000000" stroke="none" 
	d="
M173.045242,121.979225 
	C178.746506,121.185013 179.973602,115.728600 183.403900,112.113022 
	C183.736404,115.047661 183.966766,118.168221 183.838715,121.274002 
	C183.561981,127.986046 182.587326,128.838928 175.482025,128.618774 
	C175.045319,128.393326 174.954803,127.993790 174.919418,127.657333 
	C174.213593,125.891998 173.543152,124.463112 172.916214,122.770538 
	C172.988235,122.330971 173.016739,122.155098 173.045242,121.979225 
z"/>
<path fill="#90E8E9" opacity="1.000000" stroke="none" 
	d="
M183.607849,99.658195 
	C182.443512,97.510910 181.619003,94.799515 180.231812,92.415504 
	C178.735703,89.844276 176.713013,87.579460 174.504486,84.776031 
	C174.005081,83.899551 173.921219,83.428009 173.878082,82.564392 
	C174.008713,81.125900 174.098602,80.079475 174.188492,79.033058 
	C176.861389,80.278793 179.534286,81.524521 182.519012,82.892349 
	C183.120529,88.422379 183.410217,93.830307 183.607849,99.658195 
z"/>
<path fill="#7A9799" opacity="1.000000" stroke="none" 
	d="
M174.954803,127.993790 
	C174.954803,127.993790 175.045319,128.393326 175.063049,128.597290 
	C170.707825,132.773331 160.152084,133.372192 154.365875,129.491577 
	C154.886032,128.009399 155.466324,127.008705 156.132843,125.789917 
	C156.219070,125.571823 156.369400,125.127480 156.671310,125.109375 
	C157.578491,125.054657 158.183746,125.018036 158.880432,125.332687 
	C161.790863,130.425415 162.990250,130.723709 168.165176,127.879684 
	C170.731918,127.932800 172.843353,127.963295 174.954803,127.993790 
z"/>
<path fill="#89E0E1" opacity="1.000000" stroke="none" 
	d="
M156.046600,126.008011 
	C155.466324,127.008705 154.886032,128.009399 154.080780,129.198868 
	C152.983185,129.469406 152.110565,129.551163 150.916260,129.624390 
	C149.483795,128.606506 148.373001,127.597153 147.440216,126.192528 
	C150.427689,125.867508 153.237137,125.937759 156.046600,126.008011 
z"/>
<path fill="#7E9C9D" opacity="1.000000" stroke="none" 
	d="
M42.015961,124.019424 
	C34.318729,131.051819 20.930464,127.765945 14.713634,117.371033 
	C13.464103,115.281754 11.981399,113.331917 10.309178,110.824509 
	C10.010142,109.888100 10.008130,109.444969 10.122963,108.762741 
	C10.157747,107.682106 10.075687,106.840561 9.993628,105.999023 
	C9.993554,105.250694 9.993480,104.502373 9.992624,103.380051 
	C9.992920,102.252838 9.993998,101.499619 9.992664,100.369690 
	C9.991756,99.245354 9.993258,98.497726 10.079512,97.183243 
	C10.111056,96.077774 10.057848,95.539169 10.004229,94.667282 
	C10.001638,93.889671 9.999459,93.445328 9.997279,93.000992 
	C9.997279,93.000992 10.000773,93.000862 10.254602,92.859039 
	C11.001515,92.141586 11.494600,91.565956 11.987682,90.990318 
	C12.564809,89.206169 13.141936,87.422028 13.861647,85.318489 
	C16.591747,82.751373 18.839945,79.677856 21.843874,78.443535 
	C26.723381,76.438530 32.097763,75.637878 37.964607,74.168427 
	C39.108265,74.008675 39.550575,74.009346 40.166069,74.269653 
	C41.228394,75.016541 42.117535,75.503799 43.295692,75.893158 
	C44.392166,75.203941 45.199623,74.612625 46.007080,74.021317 
	C47.716724,74.024513 49.426369,74.027718 51.731606,74.251938 
	C53.549473,74.476349 54.889702,74.812325 55.974323,74.427635 
	C61.755920,72.377007 67.488678,70.184555 73.199387,67.942001 
	C74.227524,67.538261 75.073753,66.671310 76.336243,66.015518 
	C77.111626,66.011642 77.554749,66.010483 78.314690,66.160172 
	C80.422256,66.203072 82.212990,66.095131 84.003731,65.987190 
	C85.068298,65.986977 86.132874,65.986763 87.927399,66.143906 
	C90.772072,66.204315 92.886803,66.107368 95.332832,66.009865 
	C96.105751,66.009872 96.547363,66.010429 97.212944,66.291824 
	C106.453896,67.911514 115.468567,69.266197 124.489342,70.579002 
	C127.006424,70.945320 129.541504,71.187950 131.768417,71.618317 
	C129.863419,72.429428 128.258331,73.109550 126.433250,73.917549 
	C125.801819,74.342819 125.390388,74.640221 124.737144,74.654037 
	C120.793259,73.971214 117.091194,73.571991 113.052292,73.181641 
	C111.817078,73.162094 110.918701,73.133675 109.766251,72.840179 
	C101.304466,71.206924 93.101906,69.805046 84.877319,68.547142 
	C84.335037,68.464211 83.624741,69.479820 82.593475,69.986649 
	C81.129417,69.990234 80.064468,69.991623 78.727905,69.863708 
	C77.302025,70.152390 76.147751,70.570374 74.661133,70.989426 
	C73.885674,70.991806 73.442558,70.993103 72.711136,70.902527 
	C70.280876,71.814369 68.138931,72.818085 65.639938,73.881195 
	C63.928577,74.321579 62.574257,74.702553 60.831635,75.119446 
	C54.052780,77.228516 47.784012,80.041100 40.768341,77.696312 
	C40.069180,77.462639 38.898312,78.640312 37.597271,78.997749 
	C34.520950,78.939491 31.793730,79.046425 28.777805,79.008759 
	C26.568996,79.523468 24.276413,79.720490 22.790035,80.918106 
	C14.020643,87.983849 11.566309,97.462555 13.456339,108.160889 
	C15.076756,117.333099 20.839497,123.134354 28.619511,124.061752 
	C31.876301,124.161957 34.859997,124.053047 38.260612,123.953621 
	C39.790337,123.981880 40.903149,124.000648 42.015961,124.019424 
z"/>
<path fill="#7A9799" opacity="1.000000" stroke="none" 
	d="
M132.068329,71.487320 
	C129.541504,71.187950 127.006424,70.945320 124.489342,70.579002 
	C115.468567,69.266197 106.453896,67.911514 97.466187,66.286598 
	C97.664200,65.997368 97.832947,65.994202 98.001694,65.991028 
	C99.110725,65.714851 100.219757,65.438683 101.662506,65.084480 
	C103.149010,65.425842 104.301804,65.845238 105.726028,66.135742 
	C106.746666,66.007278 107.495880,66.007698 108.619537,66.008835 
	C110.784676,66.441017 112.575363,66.872482 114.682129,67.154724 
	C115.442101,67.005333 115.886002,67.005165 116.662735,67.005188 
	C118.785072,67.481102 120.711319,68.645790 122.342133,68.322083 
	C133.980103,66.012024 145.190475,68.659843 156.447006,70.869339 
	C157.535309,71.082954 158.520645,71.820999 159.414734,72.641838 
	C158.116760,73.300735 156.957855,73.633392 155.499146,73.971588 
	C154.798462,73.983093 154.397583,73.989067 153.860580,73.768677 
	C152.817276,73.363113 151.910095,73.183907 150.668793,73.003235 
	C149.889191,72.999695 149.443680,72.997597 148.796631,72.722855 
	C145.875977,72.082230 143.156860,71.714256 140.025024,71.355774 
	C137.097641,71.405952 134.582977,71.446632 132.068329,71.487320 
z"/>
<path fill="#7A9799" opacity="1.000000" stroke="none" 
	d="
M76.003967,66.018219 
	C75.073753,66.671310 74.227524,67.538261 73.199387,67.942001 
	C67.488678,70.184555 61.755920,72.377007 55.974323,74.427635 
	C54.889702,74.812325 53.549473,74.476349 52.158882,74.253250 
	C59.778122,71.068596 67.565681,68.103622 75.677475,65.324783 
	C76.002464,65.680023 76.003212,65.849121 76.003967,66.018219 
z"/>
<path fill="#7A9799" opacity="1.000000" stroke="none" 
	d="
M95.001526,66.010414 
	C92.886803,66.107368 90.772072,66.204315 88.326599,66.144142 
	C90.057625,65.327652 92.119385,64.668289 94.589111,64.341667 
	C94.998566,65.119743 95.000046,65.565079 95.001526,66.010414 
z"/>
<path fill="#7A9799" opacity="1.000000" stroke="none" 
	d="
M83.785156,65.710548 
	C82.212990,66.095131 80.422256,66.203072 78.316132,65.826805 
	C78.003105,64.898499 78.005447,64.454407 78.007797,64.010315 
	C79.860725,64.484840 81.713661,64.959373 83.785156,65.710548 
z"/>
<path fill="#779495" opacity="1.000000" stroke="none" 
	d="
M34.700493,71.855591 
	C33.529633,72.099907 32.062641,72.197380 30.299305,72.149048 
	C31.470091,71.905075 32.937225,71.806908 34.700493,71.855591 
z"/>
<path fill="#779495" opacity="1.000000" stroke="none" 
	d="
M45.768936,73.900330 
	C45.199623,74.612625 44.392166,75.203941 43.294594,75.560989 
	C43.003242,74.883568 43.002003,74.440407 43.000763,73.997253 
	C43.844105,73.924614 44.687447,73.851982 45.768936,73.900330 
z"/>
<path fill="#779495" opacity="1.000000" stroke="none" 
	d="
M95.332832,66.009865 
	C95.000046,65.565079 94.998566,65.119743 94.995644,64.340652 
	C95.881676,64.495285 96.769135,64.983681 97.829147,65.731552 
	C97.832947,65.994202 97.664200,65.997368 97.242218,66.005753 
	C96.547363,66.010429 96.105751,66.009872 95.332832,66.009865 
z"/>
<path fill="#779495" opacity="1.000000" stroke="none" 
	d="
M39.992886,74.010010 
	C39.550575,74.009346 39.108265,74.008675 38.334274,74.007500 
	C38.001247,73.562531 37.999897,73.118065 37.997414,72.340462 
	C38.883045,72.495316 39.769806,72.983299 40.576801,73.735794 
	C40.328987,74.003540 40.160938,74.006775 39.992886,74.010010 
z"/>
<path fill="#7A9799" opacity="1.000000" stroke="none" 
	d="
M40.166069,74.269653 
	C40.160938,74.006775 40.328987,74.003540 40.749123,73.995575 
	C41.445545,73.992645 41.889874,73.994438 42.667484,73.996750 
	C43.002003,74.440407 43.003242,74.883568 43.005577,75.658890 
	C42.117535,75.503799 41.228394,75.016541 40.166069,74.269653 
z"/>
<path fill="#779495" opacity="1.000000" stroke="none" 
	d="
M77.743896,64.107010 
	C78.005447,64.454407 78.003105,64.898499 77.999313,65.675957 
	C77.554749,66.010483 77.111626,66.011642 76.336243,66.015518 
	C76.003212,65.849121 76.002464,65.680023 76.000877,65.257324 
	C76.493362,64.737045 76.986687,64.470383 77.743896,64.107010 
z"/>
<path fill="#779495" opacity="1.000000" stroke="none" 
	d="
M27.740278,72.105080 
	C27.472084,72.373001 26.941057,72.738205 26.206455,73.052948 
	C26.494404,72.735786 26.985924,72.469070 27.740278,72.105080 
z"/>
<path fill="#7A9799" opacity="1.000000" stroke="none" 
	d="
M173.801666,73.039978 
	C174.109665,73.920776 174.040283,74.607117 173.530731,75.544373 
	C169.823792,75.513855 166.557022,75.232407 163.108398,74.772873 
	C162.574722,74.231720 162.222870,73.868660 161.871033,73.505608 
	C165.722122,73.285568 169.573196,73.065536 173.801666,73.039978 
z"/>
<path fill="#89E0E1" opacity="1.000000" stroke="none" 
	d="
M161.560516,73.395294 
	C162.222870,73.868660 162.574722,74.231720 163.193115,75.033493 
	C163.614395,75.996460 163.769089,76.520714 163.513580,77.028709 
	C160.451782,76.695366 157.800186,76.378273 155.201508,75.790222 
	C155.435928,75.001526 155.617447,74.483795 155.798950,73.966049 
	C156.957855,73.633392 158.116760,73.300735 159.641357,72.908218 
	C160.421371,72.993904 160.835678,73.139442 161.560516,73.395294 
z"/>
<path fill="#779495" opacity="1.000000" stroke="none" 
	d="
M26.204895,129.290649 
	C30.687948,128.720261 35.375702,128.438232 40.062054,128.134613 
	C41.827595,128.020233 43.589893,127.855835 45.674843,127.856552 
	C41.249710,129.221680 36.548702,130.718765 31.731834,131.514267 
	C30.108841,131.782272 28.191727,130.269379 26.204895,129.290649 
z"/>
<path fill="#779495" opacity="1.000000" stroke="none" 
	d="
M49.312157,128.165268 
	C52.264416,126.560631 54.666176,127.858833 56.837288,130.701538 
	C54.539429,130.108521 52.079952,129.220505 49.312157,128.165268 
z"/>
<path fill="#81A1A2" opacity="1.000000" stroke="none" 
	d="
M163.923798,77.044960 
	C163.769089,76.520714 163.614395,75.996460 163.374969,75.211594 
	C166.557022,75.232407 169.823792,75.513855 173.476822,75.885468 
	C173.937790,76.740479 174.012497,77.505318 174.137848,78.651604 
	C174.098602,80.079475 174.008713,81.125900 173.498306,82.548706 
	C170.823502,82.600800 168.569199,82.276497 166.165466,81.728226 
	C165.919876,81.352615 165.823746,81.200974 165.651337,80.743561 
	C165.024628,79.306839 164.474213,78.175896 163.923798,77.044960 
z"/>
<path fill="#779495" opacity="1.000000" stroke="none" 
	d="
M9.805770,93.101135 
	C9.999459,93.445328 10.001638,93.889671 9.751738,94.666771 
	C9.331359,94.999382 9.163060,94.999229 8.994763,94.999084 
	C9.201263,94.399818 9.407762,93.800545 9.805770,93.101135 
z"/>
<path fill="#7A9799" opacity="1.000000" stroke="none" 
	d="
M11.737482,91.134232 
	C11.494600,91.565956 11.001515,92.141586 10.257797,92.860535 
	C10.500536,92.428619 10.993908,91.853378 11.737482,91.134232 
z"/>
<path fill="#7A9799" opacity="1.000000" stroke="none" 
	d="
M8.994471,95.332573 
	C9.163060,94.999229 9.331359,94.999382 9.752149,95.000046 
	C10.057848,95.539169 10.111056,96.077774 10.079778,96.809319 
	C9.827555,97.001968 9.659819,97.001694 9.240337,97.000710 
	C8.990455,96.555351 8.992316,96.110710 8.994471,95.332573 
z"/>
<path fill="#779495" opacity="1.000000" stroke="none" 
	d="
M92.385757,134.944885 
	C95.777695,133.895172 99.557785,132.795303 103.668793,131.846313 
	C100.257767,132.963058 96.515839,133.928909 92.385757,134.944885 
z"/>
<path fill="#779495" opacity="1.000000" stroke="none" 
	d="
M86.347176,135.975067 
	C87.151176,135.577026 88.303581,135.158188 89.727303,134.869141 
	C88.897606,135.317383 87.796585,135.635818 86.347176,135.975067 
z"/>
<path fill="#7A9799" opacity="1.000000" stroke="none" 
	d="
M9.744951,106.123779 
	C10.075687,106.840561 10.157747,107.682106 9.789582,108.761826 
	C8.895101,108.998550 8.450844,108.997086 8.006587,108.995621 
	C8.006178,108.551750 8.005768,108.107880 8.005096,107.331070 
	C8.501982,106.748260 8.999128,106.498398 9.744951,106.123779 
z"/>
<path fill="#779495" opacity="1.000000" stroke="none" 
	d="
M8.104067,109.258934 
	C8.450844,108.997086 8.895101,108.998550 9.672737,109.000923 
	C10.008130,109.444969 10.010142,109.888100 10.015360,110.663513 
	C9.849316,110.996552 9.680064,110.997299 9.256973,110.998871 
	C8.735938,110.507202 8.468743,110.014725 8.104067,109.258934 
z"/>
<path fill="#81A1A2" opacity="1.000000" stroke="none" 
	d="
M42.346565,124.017426 
	C40.903149,124.000648 39.790337,123.981880 38.339363,123.648170 
	C38.308609,122.550362 38.616016,121.767494 39.317451,120.892128 
	C47.099682,118.581345 54.137825,119.723206 61.102249,123.331009 
	C62.455971,127.516037 65.622177,128.012695 69.222679,128.417267 
	C71.971161,128.524124 74.490173,128.371368 77.337875,128.169952 
	C78.108269,128.142395 78.549965,128.163498 79.210434,128.434113 
	C82.416779,128.738632 85.404358,128.793640 88.671158,128.884705 
	C89.307434,129.034058 89.664497,129.147354 90.021561,129.260651 
	C83.311157,134.452423 75.617172,133.635193 68.233177,132.006210 
	C63.831993,131.035248 59.839806,128.210358 55.134766,125.814087 
	C51.408211,122.384705 47.786247,122.575195 44.000126,124.009293 
	C43.559143,124.011337 43.118156,124.013382 42.346565,124.017426 
z"/>
<path fill="#80AEAF" opacity="1.000000" stroke="none" 
	d="
M144.144196,123.310455 
	C141.050430,124.197113 137.956680,125.083771 134.413849,125.647324 
	C133.921249,124.867752 133.877747,124.411278 133.875397,123.521790 
	C133.899506,121.060745 133.882446,119.032700 133.916626,116.682861 
	C134.604965,115.272270 135.242081,114.183479 136.044312,113.371445 
	C137.402878,114.906631 138.596313,116.165070 139.917694,117.696129 
	C140.983139,119.004051 141.920639,120.039360 142.978607,121.305908 
	C143.447433,122.128258 143.795822,122.719353 144.144196,123.310455 
z"/>
<path fill="#81A1A2" opacity="1.000000" stroke="none" 
	d="
M113.020554,126.923172 
	C106.569702,127.680786 100.118851,128.438400 93.526901,128.845551 
	C94.295273,127.333046 95.204735,126.171036 96.536453,124.996475 
	C101.979340,124.655350 106.999977,124.326797 112.163452,124.274017 
	C112.544380,125.340919 112.782471,126.132050 113.020554,126.923172 
z"/>
<path fill="#A8FEFE" opacity="1.000000" stroke="none" 
	d="
M113.400681,126.983170 
	C112.782471,126.132050 112.544380,125.340919 112.212151,123.938858 
	C112.162285,122.878777 112.206566,122.429634 112.645218,121.956131 
	C115.725876,121.614616 118.412140,121.297447 121.237228,121.318352 
	C121.460869,123.366905 121.545700,125.077393 121.630531,126.787872 
	C119.013962,126.872971 116.397385,126.958069 113.400681,126.983170 
z"/>
<path fill="#80AEAF" opacity="1.000000" stroke="none" 
	d="
M122.052002,126.822998 
	C121.545700,125.077393 121.460869,123.366905 121.262024,120.901016 
	C121.059685,118.757332 120.971352,117.369072 120.956398,115.750259 
	C121.029778,115.519707 121.143379,115.048897 121.500809,115.041870 
	C122.808121,115.053848 123.757996,115.072845 124.747993,115.500618 
	C124.889183,117.274399 124.990257,118.639404 125.041473,120.416107 
	C125.041916,122.209572 125.092224,123.591339 125.117966,125.310158 
	C125.064041,126.096046 125.034691,126.544876 125.005356,126.993706 
	C124.161392,126.948517 123.317436,126.903320 122.052002,126.822998 
z"/>
<path fill="#98EEF0" opacity="1.000000" stroke="none" 
	d="
M144.383072,123.511002 
	C143.795822,122.719353 143.447433,122.128258 143.332397,121.206573 
	C146.025085,119.593002 148.484436,118.310013 151.189697,117.215591 
	C152.320206,118.532936 153.204849,119.661705 153.771286,120.980225 
	C150.969910,122.434402 148.486740,123.698814 146.003571,124.963226 
	C145.543030,124.545998 145.082489,124.128777 144.383072,123.511002 
z"/>
<path fill="#98EEF0" opacity="1.000000" stroke="none" 
	d="
M125.248390,127.252563 
	C125.034691,126.544876 125.064041,126.096046 125.519043,125.314987 
	C128.574539,124.640106 131.204376,124.297447 133.834229,123.954796 
	C133.877747,124.411278 133.921249,124.867752 133.996002,125.666924 
	C131.690292,129.399368 128.803604,129.664536 125.248390,127.252563 
z"/>
<path fill="#90E8E9" opacity="1.000000" stroke="none" 
	d="
M146.081253,125.197632 
	C148.486740,123.698814 150.969910,122.434402 154.037628,121.217270 
	C155.204575,122.552193 155.786987,123.839836 156.369400,125.127480 
	C156.369400,125.127480 156.219070,125.571823 156.132843,125.789917 
	C153.237137,125.937759 150.427689,125.867508 147.257690,125.930832 
	C146.575806,125.941498 146.329727,125.730705 146.081253,125.197632 
z"/>
<path fill="#B9FFFF" opacity="1.000000" stroke="none" 
	d="
M96.114197,125.009033 
	C95.204735,126.171036 94.295273,127.333046 93.193939,128.746689 
	C92.256287,129.057068 91.510506,129.115829 90.393143,129.217621 
	C89.664497,129.147354 89.307434,129.034058 88.520805,128.645081 
	C87.783371,127.904694 87.475502,127.440002 87.503311,126.877747 
	C90.550117,125.847168 93.261238,124.914146 96.004585,124.238556 
	C96.062607,124.667000 96.088409,124.838020 96.114197,125.009033 
z"/>
<path fill="#7E9C9D" opacity="1.000000" stroke="none" 
	d="
M44.359627,124.167908 
	C47.786247,122.575195 51.408211,122.384705 54.804596,125.701912 
	C51.575321,125.438545 48.147224,124.882538 44.359627,124.167908 
z"/>
<path fill="#A8FEFE" opacity="1.000000" stroke="none" 
	d="
M175.006134,98.006927 
	C175.006134,98.006927 175.004303,98.498749 174.877365,98.799721 
	C174.654633,99.207916 174.461472,99.388916 174.478149,99.410904 
	C174.637451,99.621101 174.832230,99.804405 175.016830,99.995422 
	C179.600250,105.591240 178.024368,112.119179 170.652832,115.798340 
	C169.043945,115.107239 167.952759,114.546074 166.550079,113.869186 
	C163.211670,110.502647 160.184753,107.251839 157.097809,103.587082 
	C156.804276,101.804001 156.570770,100.434868 156.365509,98.658051 
	C156.232864,94.833786 156.071991,91.417198 156.288071,87.960220 
	C160.724243,88.283195 164.783447,88.646568 168.987030,89.276321 
	C169.723511,90.082184 170.315598,90.621666 170.891785,91.416183 
	C172.252625,93.783127 173.629379,95.895027 175.006134,98.006927 
z"/>
<path fill="#80AEAF" opacity="1.000000" stroke="none" 
	d="
M170.907700,91.161140 
	C170.315598,90.621666 169.723511,90.082184 168.954559,88.932625 
	C167.956772,86.199097 167.135834,84.075645 166.314911,81.952194 
	C168.569199,82.276497 170.823502,82.600800 173.457581,82.940781 
	C173.921219,83.428009 174.005081,83.899551 174.165985,84.722046 
	C174.168411,86.435989 174.093826,87.798981 173.668823,89.696304 
	C172.514832,90.540802 171.711273,90.850967 170.907700,91.161140 
z"/>
<path fill="#80AEAF" opacity="1.000000" stroke="none" 
	d="
M166.861557,113.984909 
	C167.952759,114.546074 169.043945,115.107239 170.289703,115.918404 
	C171.186417,117.907829 171.928558,119.647263 172.857971,121.682953 
	C173.016739,122.155098 172.988235,122.330971 172.529205,122.763489 
	C170.804901,123.028168 169.511093,123.036209 168.118774,122.768875 
	C167.953812,122.310265 167.887375,122.127052 167.847809,121.539825 
	C167.537003,118.752182 167.199280,116.368546 166.861557,113.984909 
z"/>
<path fill="#90E8E9" opacity="1.000000" stroke="none" 
	d="
M170.891785,91.416183 
	C171.711273,90.850967 172.514832,90.540802 173.616882,90.102852 
	C174.271225,92.369865 174.627090,94.764656 174.994553,97.583191 
	C173.629379,95.895027 172.252625,93.783127 170.891785,91.416183 
z"/>
<path fill="#90E8E9" opacity="1.000000" stroke="none" 
	d="
M175.010712,99.744247 
	C174.832230,99.804405 174.637451,99.621101 174.478149,99.410904 
	C174.461472,99.388916 174.654633,99.207916 174.878738,99.045631 
	C175.006226,99.158073 175.005402,99.325569 175.010712,99.744247 
z"/>
<path fill="#81A1A2" opacity="1.000000" stroke="none" 
	d="
M168.217285,123.044250 
	C169.511093,123.036209 170.804901,123.028168 172.485718,123.027176 
	C173.543152,124.463112 174.213593,125.891998 174.919418,127.657333 
	C172.843353,127.963295 170.731918,127.932800 168.213654,127.563736 
	C167.836258,126.800125 167.865692,126.375084 167.956024,125.589790 
	C168.083710,124.501106 168.150497,123.772675 168.217285,123.044250 
z"/>
<path fill="#80AEAF" opacity="1.000000" stroke="none" 
	d="
M156.337265,99.065735 
	C156.570770,100.434868 156.804276,101.804001 157.066254,104.014389 
	C157.727188,110.233597 158.359634,115.611565 158.969421,121.394852 
	C159.028931,122.878174 159.111084,123.956154 159.091949,125.022751 
	C158.990662,125.011360 158.789017,124.981430 158.789017,124.981430 
	C158.183746,125.018036 157.578491,125.054657 156.671310,125.109375 
	C155.786987,123.839836 155.204575,122.552193 154.355835,121.027512 
	C153.204849,119.661705 152.320206,118.532936 151.032928,116.932747 
	C148.959366,114.533073 147.288437,112.604813 145.497101,110.427597 
	C145.225830,109.842461 145.074997,109.506279 144.985504,108.761581 
	C145.335220,106.165543 145.623581,103.978027 146.042877,101.572876 
	C146.472290,100.947769 146.770767,100.540298 147.325958,99.988182 
	C148.316589,99.197609 149.050522,98.551674 150.164062,97.962753 
	C152.474854,98.368416 154.406067,98.717079 156.337265,99.065735 
z"/>
<path fill="#89E0E1" opacity="1.000000" stroke="none" 
	d="
M167.895111,125.950050 
	C167.865692,126.375084 167.836258,126.800125 167.758362,127.541107 
	C162.990250,130.723709 161.790863,130.425415 158.880432,125.332687 
	C158.789017,124.981430 158.990662,125.011360 159.466858,125.117523 
	C162.593750,125.465813 165.244431,125.707932 167.895111,125.950050 
z"/>
<path fill="#CFFDFD" opacity="1.000000" stroke="none" 
	d="
M38.923424,120.984619 
	C38.616016,121.767494 38.308609,122.550362 37.922447,123.638687 
	C34.859997,124.053047 31.876301,124.161957 28.395744,123.798157 
	C22.080128,119.528313 18.225502,114.345528 16.910107,107.456070 
	C14.589913,95.303925 19.512300,86.224686 29.066507,79.153366 
	C31.793730,79.046425 34.520950,78.939491 37.638897,79.187454 
	C38.109421,79.796875 38.250984,80.010452 38.535271,80.533981 
	C38.750809,81.591362 38.885384,82.297867 38.845821,83.039291 
	C38.671680,83.074203 38.321747,83.135208 37.886864,83.118027 
	C25.916359,83.395042 19.700937,90.523125 20.013083,103.100433 
	C20.279186,113.822479 26.369074,119.250298 37.836006,119.046280 
	C38.299507,119.822815 38.611465,120.403717 38.923424,120.984619 
z"/>
<path fill="#A3FDFD" opacity="1.000000" stroke="none" 
	d="
M149.784470,97.905739 
	C149.050522,98.551674 148.316589,99.197609 147.206146,99.639526 
	C145.434265,96.374428 148.977798,91.690880 143.762329,89.511810 
	C143.720413,82.320587 141.473419,80.468079 133.654129,80.846420 
	C130.539764,80.127731 127.760323,79.571068 124.893463,78.670471 
	C124.716888,77.862183 124.627716,77.397812 124.648094,76.609497 
	C124.831413,75.836243 124.905182,75.386940 124.978958,74.937630 
	C125.390388,74.640221 125.801819,74.342819 126.820282,74.027008 
	C135.212769,75.691078 142.998215,77.373566 150.942596,79.239662 
	C151.291443,79.690186 151.521469,79.916321 151.862335,80.507355 
	C154.167816,86.950386 152.938278,92.549721 149.784470,97.905739 
z"/>
<path fill="#83A6A8" opacity="1.000000" stroke="none" 
	d="
M28.777805,79.008759 
	C19.512300,86.224686 14.589913,95.303925 16.910107,107.456070 
	C18.225502,114.345528 22.080128,119.528313 28.122652,123.589035 
	C20.839497,123.134354 15.076756,117.333099 13.456339,108.160889 
	C11.566309,97.462555 14.020643,87.983849 22.790035,80.918106 
	C24.276413,79.720490 26.568996,79.523468 28.777805,79.008759 
z"/>
<path fill="#98EEF0" opacity="1.000000" stroke="none" 
	d="
M150.783676,79.056053 
	C142.998215,77.373566 135.212769,75.691078 127.040276,73.899139 
	C128.258331,73.109550 129.863419,72.429428 131.768417,71.618309 
	C134.582977,71.446632 137.097641,71.405952 140.325165,71.555145 
	C142.967667,72.597824 144.897278,73.450623 147.019745,74.548599 
	C148.402969,76.214539 149.593323,77.635300 150.783676,79.056053 
z"/>
<path fill="#83A6A8" opacity="1.000000" stroke="none" 
	d="
M78.999519,69.993011 
	C80.064468,69.991623 81.129417,69.990234 82.968575,70.008942 
	C87.497894,70.983658 91.253014,71.938278 94.671417,72.967766 
	C93.880920,73.118652 93.427132,73.194672 92.511482,73.206619 
	C88.574051,73.080933 85.077095,72.762161 81.630470,73.048706 
	C79.358498,73.237579 77.158951,74.297668 74.657364,75.134308 
	C73.239838,76.190735 72.091927,77.080513 70.706818,77.890076 
	C70.269028,77.547226 70.068436,77.284592 69.813538,76.728836 
	C69.171951,75.905228 68.584679,75.374733 68.159164,74.572403 
	C69.880424,73.198517 71.439926,72.096458 72.999435,70.994400 
	C73.442558,70.993103 73.885674,70.991806 75.010345,70.970581 
	C76.794434,70.631447 77.896980,70.312233 78.999519,69.993011 
z"/>
<path fill="#81A1A2" opacity="1.000000" stroke="none" 
	d="
M95.008133,72.892899 
	C91.253014,71.938278 87.497894,70.983658 83.367691,70.006744 
	C83.624741,69.479820 84.335037,68.464211 84.877319,68.547142 
	C93.101906,69.805046 101.304466,71.206924 109.585754,73.033417 
	C109.180969,73.709534 108.702606,73.927345 107.887573,74.011963 
	C105.980843,74.021263 104.410767,74.163765 102.466736,74.187958 
	C99.731232,73.677399 97.369682,73.285141 95.008133,72.892899 
z"/>
<path fill="#81A1A2" opacity="1.000000" stroke="none" 
	d="
M38.454311,80.183098 
	C38.250984,80.010452 38.109421,79.796875 37.987995,79.352661 
	C38.898312,78.640312 40.069180,77.462639 40.768341,77.696312 
	C47.784012,80.041100 54.052780,77.228516 60.713806,75.371796 
	C60.683426,76.052116 60.382568,76.516014 59.724663,77.077705 
	C52.827076,81.171936 45.661106,80.819450 38.454311,80.183098 
z"/>
<path fill="#A8FEFE" opacity="1.000000" stroke="none" 
	d="
M108.224243,74.145164 
	C108.702606,73.927345 109.180969,73.709534 109.839828,73.298492 
	C110.918701,73.133675 111.817078,73.162094 113.291382,73.429626 
	C114.952774,74.774506 116.038254,75.880272 117.086823,77.359726 
	C117.008347,78.483215 116.966782,79.233009 116.557251,79.931190 
	C113.076797,78.893456 109.964317,77.907341 106.951836,76.627090 
	C107.442635,75.603691 107.833435,74.874428 108.224243,74.145164 
z"/>
<path fill="#81A1A2" opacity="1.000000" stroke="none" 
	d="
M117.123726,76.986046 
	C116.038254,75.880272 114.952774,74.774506 113.628212,73.420746 
	C117.091194,73.571991 120.793259,73.971214 124.737144,74.654037 
	C124.905182,75.386940 124.831413,75.836243 124.241577,76.617020 
	C121.524918,76.961006 119.324318,76.973526 117.123726,76.986046 
z"/>
<path fill="#C6FBFB" opacity="1.000000" stroke="none" 
	d="
M60.081711,76.979912 
	C60.382568,76.516014 60.683426,76.052116 61.102112,75.335876 
	C62.574257,74.702553 63.928577,74.321579 65.890289,74.018173 
	C66.997589,74.345238 67.497498,74.594734 67.997406,74.844231 
	C68.584679,75.374733 69.171951,75.905228 69.454651,76.816727 
	C66.432381,77.814018 63.714699,78.430321 60.900936,78.776428 
	C60.563808,77.997459 60.322762,77.488686 60.081711,76.979912 
z"/>
<path fill="#81A1A2" opacity="1.000000" stroke="none" 
	d="
M68.159164,74.572403 
	C67.497498,74.594734 66.997589,74.345238 66.247330,73.958771 
	C68.138931,72.818085 70.280876,71.814369 72.711136,70.902527 
	C71.439926,72.096458 69.880424,73.198517 68.159164,74.572403 
z"/>
<path fill="#81A1A2" opacity="1.000000" stroke="none" 
	d="
M78.727905,69.863708 
	C77.896980,70.312233 76.794434,70.631447 75.342682,70.969505 
	C76.147751,70.570374 77.302025,70.152390 78.727905,69.863708 
z"/>
<path fill="#81A1A2" opacity="1.000000" stroke="none" 
	d="
M150.942596,79.239662 
	C149.593323,77.635300 148.402969,76.214539 147.272202,74.354477 
	C147.887253,73.608620 148.442719,73.302063 148.998184,72.995514 
	C149.443680,72.997597 149.889191,72.999695 150.948151,73.154633 
	C152.373322,73.536667 153.185013,73.765854 153.996704,73.995041 
	C154.397583,73.989067 154.798462,73.983093 155.499146,73.971588 
	C155.617447,74.483795 155.435928,75.001526 155.122955,76.181747 
	C155.013443,77.905075 155.035416,78.965904 154.988281,79.992249 
	C154.919174,79.957764 154.777527,79.896172 154.404419,79.921089 
	C153.284729,79.997902 152.538147,80.049789 151.791565,80.101685 
	C151.521469,79.916321 151.291443,79.690186 150.942596,79.239662 
z"/>
<path fill="#7E9C9D" opacity="1.000000" stroke="none" 
	d="
M148.796631,72.722855 
	C148.442719,73.302063 147.887253,73.608620 147.079346,74.109299 
	C144.897278,73.450623 142.967667,72.597824 140.737900,71.545654 
	C143.156860,71.714256 145.875977,72.082230 148.796631,72.722855 
z"/>
<path fill="#7E9C9D" opacity="1.000000" stroke="none" 
	d="
M153.860580,73.768677 
	C153.185013,73.765854 152.373322,73.536667 151.282272,73.156082 
	C151.910095,73.183907 152.817276,73.363113 153.860580,73.768677 
z"/>
<path fill="#98EEF0" opacity="1.000000" stroke="none" 
	d="
M155.057373,80.026733 
	C155.035416,78.965904 155.013443,77.905075 155.070038,76.452713 
	C157.800186,76.378273 160.451782,76.695366 163.513580,77.028709 
	C164.474213,78.175896 165.024628,79.306839 165.242432,80.731094 
	C161.625687,80.691849 158.341522,80.359291 155.057373,80.026733 
z"/>
<path fill="#9DFCFD" opacity="1.000000" stroke="none" 
	d="
M154.988281,79.992249 
	C158.341522,80.359291 161.625687,80.691849 165.318726,81.036865 
	C165.823746,81.200974 165.919876,81.352615 166.165466,81.728226 
	C167.135834,84.075645 167.956772,86.199097 168.810181,88.666245 
	C164.783447,88.646568 160.724243,88.283195 156.156815,87.584312 
	C155.358246,84.797928 155.067886,82.347046 154.777527,79.896172 
	C154.777527,79.896172 154.919174,79.957764 154.988281,79.992249 
z"/>
<path fill="#8FB4B5" opacity="1.000000" stroke="none" 
	d="
M39.317451,120.892128 
	C38.611465,120.403717 38.299507,119.822815 37.696877,118.741631 
	C37.175983,117.859169 36.945763,117.476974 37.089775,117.030952 
	C39.316849,116.040955 41.169682,115.114784 43.446770,114.172668 
	C45.567684,114.090958 47.264351,114.025192 49.247654,114.170120 
	C53.336918,115.917496 57.139542,117.454170 61.002441,119.363068 
	C61.155823,120.482895 61.248932,121.230515 61.245270,122.236969 
	C61.083084,122.668030 61.017670,122.840256 60.952255,123.012474 
	C54.137825,119.723206 47.099682,118.581345 39.317451,120.892128 
z"/>
<path fill="#CFFDFD" opacity="1.000000" stroke="none" 
	d="
M61.102249,123.331009 
	C61.017670,122.840256 61.083084,122.668030 61.587368,122.342400 
	C63.762703,122.730919 65.470383,123.405487 67.241043,123.789894 
	C72.562187,124.945084 77.746452,125.160896 82.249496,121.153793 
	C82.714905,121.951683 82.972794,122.517403 83.173462,123.435669 
	C81.741371,125.253677 80.366516,126.719139 78.991661,128.184601 
	C78.549965,128.163498 78.108269,128.142395 76.896317,128.105591 
	C73.748451,128.112473 71.370827,128.135071 68.993210,128.157654 
	C65.622177,128.012695 62.455971,127.516037 61.102249,123.331009 
z"/>
<path fill="#83A6A8" opacity="1.000000" stroke="none" 
	d="
M79.210434,128.434113 
	C80.366516,126.719139 81.741371,125.253677 83.535599,123.430298 
	C84.679329,123.054276 85.403702,123.036171 86.117065,123.369141 
	C86.459923,124.805237 86.813782,125.890274 87.167633,126.975311 
	C87.475502,127.440002 87.783371,127.904694 88.241592,128.609009 
	C85.404358,128.793640 82.416779,128.738632 79.210434,128.434113 
z"/>
<path fill="#83A6A8" opacity="1.000000" stroke="none" 
	d="
M69.222679,128.417267 
	C71.370827,128.135071 73.748451,128.112473 76.567627,128.154251 
	C74.490173,128.371368 71.971161,128.524124 69.222679,128.417267 
z"/>
<path fill="#B9FFFF" opacity="1.000000" stroke="none" 
	d="
M125.091339,120.004410 
	C124.990257,118.639404 124.889183,117.274399 124.864761,115.226105 
	C125.011368,114.356720 125.081314,114.170624 125.503281,113.936012 
	C128.493179,111.849861 132.387848,110.313889 133.451935,107.648064 
	C134.793106,104.288086 133.822983,100.005539 133.881165,96.096375 
	C133.912308,96.071732 133.974594,96.022438 134.365540,96.082108 
	C135.807922,96.077538 136.859360,96.013313 138.170990,96.204460 
	C139.325485,98.985161 140.219788,101.510475 141.135223,104.348389 
	C141.272736,105.061981 141.389099,105.462990 141.214340,106.080612 
	C139.241882,108.563057 137.560532,110.828873 135.879196,113.094696 
	C135.242081,114.183479 134.604965,115.272270 133.579788,116.782257 
	C130.491592,118.137108 127.791466,119.070755 125.091339,120.004410 
z"/>
<path fill="#9DFCFD" opacity="1.000000" stroke="none" 
	d="
M145.617523,110.676552 
	C147.288437,112.604813 148.959366,114.533073 150.787048,116.744179 
	C148.484436,118.310013 146.025085,119.593002 143.211945,120.975327 
	C141.920639,120.039360 140.983139,119.004051 140.120544,117.383919 
	C142.002808,114.758247 143.810165,112.717400 145.617523,110.676552 
z"/>
<path fill="#A8FEFE" opacity="1.000000" stroke="none" 
	d="
M125.041473,120.416107 
	C127.791466,119.070755 130.491592,118.137108 133.528549,117.104057 
	C133.882446,119.032700 133.899506,121.060745 133.875397,123.521790 
	C131.204376,124.297447 128.574539,124.640106 125.543617,124.977936 
	C125.092224,123.591339 125.041916,122.209572 125.041473,120.416107 
z"/>
<path fill="#A8FEFE" opacity="1.000000" stroke="none" 
	d="
M145.497101,110.427597 
	C143.810165,112.717400 142.002808,114.758247 139.992599,117.111305 
	C138.596313,116.165070 137.402878,114.906631 136.044312,113.371445 
	C137.560532,110.828873 139.241882,108.563057 141.439041,106.267700 
	C142.944626,107.215485 143.934402,108.192787 144.924164,109.170097 
	C145.074997,109.506279 145.225830,109.842461 145.497101,110.427597 
z"/>
<path fill="#83A6A8" opacity="1.000000" stroke="none" 
	d="
M96.536453,124.996475 
	C96.088409,124.838020 96.062607,124.667000 96.207542,123.986725 
	C96.683876,122.677483 96.989471,121.877502 97.477913,120.934799 
	C97.854080,120.549644 98.040474,120.301987 98.644135,120.044991 
	C103.297356,119.709549 107.526360,119.378220 111.825798,119.412506 
	C112.014427,120.512253 112.132637,121.246368 112.250839,121.980492 
	C112.206566,122.429634 112.162285,122.878777 112.069313,123.663086 
	C106.999977,124.326797 101.979340,124.655350 96.536453,124.996475 
z"/>
<path fill="#B9FFFF" opacity="1.000000" stroke="none" 
	d="
M112.645218,121.956131 
	C112.132637,121.246368 112.014427,120.512253 111.875008,119.066589 
	C111.899651,117.890854 111.945511,117.426666 112.382034,116.877258 
	C115.476135,116.521622 118.179581,116.251213 120.883018,115.980804 
	C120.971352,117.369072 121.059685,118.757332 121.123215,120.562943 
	C118.412140,121.297447 115.725876,121.614616 112.645218,121.956131 
z"/>
<path fill="#93C3C4" opacity="1.000000" stroke="none" 
	d="
M125.151260,113.984528 
	C125.081314,114.170624 125.011368,114.356720 124.824646,114.817329 
	C123.757996,115.072845 122.808121,115.053848 121.397400,114.657150 
	C120.574951,112.181038 120.213356,110.082619 119.874771,107.563751 
	C119.632004,103.078995 119.366203,99.014687 119.409805,95.066345 
	C121.347397,95.757034 122.975586,96.331779 124.679550,97.374489 
	C124.887306,103.223152 125.019279,108.603836 125.151260,113.984528 
z"/>
<path fill="#C6FBFB" opacity="1.000000" stroke="none" 
	d="
M119.851753,107.984192 
	C120.213356,110.082619 120.574951,112.181038 121.039963,114.664177 
	C121.143379,115.048897 121.029778,115.519707 120.956398,115.750259 
	C118.179581,116.251213 115.476135,116.521622 112.246956,116.524231 
	C111.518036,114.488068 111.314857,112.719711 111.479370,110.934402 
	C114.515297,109.939697 117.183525,108.961945 119.851753,107.984192 
z"/>
<path fill="#C6FBFB" opacity="1.000000" stroke="none" 
	d="
M97.295074,121.077515 
	C96.989471,121.877502 96.683876,122.677483 96.175316,123.729294 
	C93.261238,124.914146 90.550117,125.847168 87.503319,126.877747 
	C86.813782,125.890274 86.459923,124.805237 86.322418,123.357407 
	C86.538765,122.994606 86.945351,122.931526 87.239655,123.032120 
	C90.787659,122.447655 94.041367,121.762589 97.295074,121.077515 
z"/>
<path fill="#A3FDFD" opacity="1.000000" stroke="none" 
	d="
M158.992065,120.989525 
	C158.359634,115.611565 157.727188,110.233597 157.126282,104.428329 
	C160.184753,107.251839 163.211670,110.502647 166.550079,113.869186 
	C167.199280,116.368546 167.537003,118.752182 167.436310,121.551346 
	C164.329300,121.641090 161.660675,121.315308 158.992065,120.989525 
z"/>
<path fill="#82B3B5" opacity="1.000000" stroke="none" 
	d="
M154.404419,79.921089 
	C155.067886,82.347046 155.358246,84.797928 155.779861,87.624710 
	C156.071991,91.417198 156.232864,94.833786 156.365509,98.658058 
	C154.406067,98.717079 152.474854,98.368416 150.164062,97.962753 
	C152.938278,92.549721 154.167816,86.950386 151.862335,80.507347 
	C152.538147,80.049789 153.284729,79.997902 154.404419,79.921089 
z"/>
<path fill="#98EEF0" opacity="1.000000" stroke="none" 
	d="
M158.969421,121.394852 
	C161.660675,121.315308 164.329300,121.641090 167.409424,121.955353 
	C167.887375,122.127052 167.953812,122.310265 168.118774,122.768867 
	C168.150497,123.772675 168.083710,124.501106 167.956024,125.589790 
	C165.244431,125.707932 162.593750,125.465813 159.568161,125.128914 
	C159.111084,123.956154 159.028931,122.878174 158.969421,121.394852 
z"/>
<path fill="#A8FEFE" opacity="1.000000" stroke="none" 
	d="
M141.114075,104.035797 
	C140.219788,101.510475 139.325485,98.985161 138.407227,95.974289 
	C140.155167,93.627655 141.927078,91.766571 143.699005,89.905487 
	C148.977798,91.690880 145.434265,96.374428 146.949463,99.784164 
	C146.770767,100.540298 146.472290,100.947769 145.732208,101.693977 
	C143.898422,102.700401 142.506241,103.368095 141.114075,104.035797 
z"/>
<path fill="#82B3B5" opacity="1.000000" stroke="none" 
	d="
M141.135223,104.348381 
	C142.506241,103.368095 143.898422,102.700401 145.601273,101.911606 
	C145.623581,103.978027 145.335220,106.165543 144.985504,108.761581 
	C143.934402,108.192787 142.944626,107.215485 141.730164,106.051086 
	C141.389099,105.462990 141.272736,105.061981 141.135223,104.348381 
z"/>
<path fill="#E0FEFE" opacity="1.000000" stroke="none" 
	d="
M36.715538,117.094788 
	C36.945763,117.476974 37.175983,117.859169 37.545338,118.546005 
	C26.369074,119.250298 20.279186,113.822479 20.013083,103.100433 
	C19.700937,90.523125 25.916359,83.395042 37.809544,83.419846 
	C37.760754,84.461960 37.354404,85.185081 36.630962,86.044540 
	C26.255713,91.692940 23.009346,100.933884 28.019627,110.431122 
	C30.993269,112.865662 33.854404,114.980225 36.715538,117.094788 
z"/>
<path fill="#8FB4B5" opacity="1.000000" stroke="none" 
	d="
M36.948051,85.908195 
	C37.354404,85.185081 37.760754,84.461960 38.244427,83.437027 
	C38.321747,83.135208 38.671680,83.074203 39.267464,83.065384 
	C46.760391,82.692986 53.657532,82.329407 60.685837,82.228394 
	C60.899849,82.668175 60.982697,82.845390 60.995026,83.394485 
	C60.838161,84.518082 60.751820,85.269798 60.294693,86.071808 
	C56.606819,86.748550 53.289730,87.375015 49.589996,87.975525 
	C45.841427,88.318817 42.475498,88.688065 38.864914,88.844315 
	C38.062855,87.723610 37.505451,86.815903 36.948051,85.908195 
z"/>
<path fill="#83A6A8" opacity="1.000000" stroke="none" 
	d="
M60.554676,81.965828 
	C53.657532,82.329407 46.760391,82.692986 39.441605,83.030472 
	C38.885384,82.297867 38.750809,81.591362 38.535271,80.533981 
	C45.661106,80.819450 52.827076,81.171936 59.724667,77.077705 
	C60.322762,77.488686 60.563808,77.997459 60.827236,79.137451 
	C60.751305,80.501060 60.652988,81.233444 60.554676,81.965828 
z"/>
<path fill="#82B3B5" opacity="1.000000" stroke="none" 
	d="
M143.762329,89.511810 
	C141.927078,91.766571 140.155167,93.627655 138.147034,95.718910 
	C136.859360,96.013313 135.807922,96.077538 134.384003,95.614738 
	C134.004044,90.394623 133.996536,85.701538 133.989044,81.008453 
	C141.473419,80.468079 143.720413,82.320587 143.762329,89.511810 
z"/>
<path fill="#B9FFFF" opacity="1.000000" stroke="none" 
	d="
M133.654114,80.846420 
	C133.996536,85.701538 134.004044,90.394623 133.993073,95.555069 
	C133.974594,96.022438 133.912308,96.071732 133.579437,95.956070 
	C130.498184,93.901176 127.749809,91.961937 124.940765,89.589615 
	C124.738464,87.422043 124.596840,85.687546 124.528152,83.545227 
	C124.727692,81.763062 124.854286,80.388733 124.980881,79.014404 
	C127.760323,79.571068 130.539764,80.127731 133.654114,80.846420 
z"/>
<path fill="#80AEAF" opacity="1.000000" stroke="none" 
	d="
M124.893463,78.670471 
	C124.854286,80.388733 124.727692,81.763062 124.135445,83.549500 
	C121.798393,83.979797 119.926987,83.997986 117.943787,83.685928 
	C117.529724,82.231392 117.227470,81.107101 116.925217,79.982811 
	C116.966782,79.233009 117.008347,78.483215 117.086823,77.359726 
	C119.324318,76.973526 121.524918,76.961006 124.132027,76.940964 
	C124.627716,77.397812 124.716888,77.862183 124.893463,78.670471 
z"/>
<path fill="#C6FBFB" opacity="1.000000" stroke="none" 
	d="
M74.926979,74.967667 
	C77.158951,74.297668 79.358498,73.237579 81.630470,73.048706 
	C85.077095,72.762161 88.574051,73.080933 92.663071,73.498016 
	C96.793884,75.570618 100.311249,77.287773 103.746048,79.342751 
	C101.305367,83.598145 97.531044,82.658844 93.891983,82.194397 
	C92.472198,80.727531 91.321457,78.974991 89.786270,78.520233 
	C84.910255,77.075806 79.890923,76.115250 74.926979,74.967667 
z"/>
<path fill="#CFFDFD" opacity="1.000000" stroke="none" 
	d="
M74.657364,75.134308 
	C79.890923,76.115250 84.910255,77.075806 89.786270,78.520233 
	C91.321457,78.974991 92.472198,80.727531 93.483902,82.233757 
	C90.127129,82.431480 87.085358,82.281532 83.873413,81.811012 
	C80.725922,78.127678 77.552116,78.256470 73.860611,80.924492 
	C72.991653,80.848381 72.495644,80.805305 71.945297,80.465439 
	C71.575317,79.435852 71.259666,78.703072 70.944016,77.970291 
	C72.091927,77.080513 73.239838,76.190735 74.657364,75.134308 
z"/>
<path fill="#B9FFFF" opacity="1.000000" stroke="none" 
	d="
M103.828621,79.004929 
	C100.311249,77.287773 96.793884,75.570618 93.124924,73.562073 
	C93.427132,73.194672 93.880920,73.118652 94.671417,72.967758 
	C97.369682,73.285141 99.731232,73.677399 102.597969,74.457016 
	C103.469841,75.548790 103.836533,76.253212 104.136482,77.298096 
	C103.989372,78.094009 103.908997,78.549469 103.828621,79.004929 
z"/>
<path fill="#E0FEFE" opacity="1.000000" stroke="none" 
	d="
M70.706810,77.890076 
	C71.259666,78.703072 71.575317,79.435852 71.628082,80.529297 
	C70.937424,80.934242 70.509644,80.978523 69.685745,81.041809 
	C66.548264,81.714737 63.806908,82.368668 61.065548,83.022606 
	C60.982697,82.845390 60.899849,82.668175 60.685837,82.228394 
	C60.652988,81.233444 60.751305,80.501060 60.923317,79.407654 
	C63.714699,78.430321 66.432381,77.814018 69.508957,77.109840 
	C70.068436,77.284592 70.269028,77.547226 70.706810,77.890076 
z"/>
<path fill="#83A6A8" opacity="1.000000" stroke="none" 
	d="
M104.203217,76.957634 
	C103.836533,76.253212 103.469841,75.548790 102.971924,74.575317 
	C104.410767,74.163765 105.980843,74.021263 107.887573,74.011963 
	C107.833435,74.874428 107.442635,75.603691 106.742798,76.739349 
	C106.176651,77.344658 105.991150,77.596359 105.664429,77.789566 
	C105.035484,77.438072 104.619354,77.197853 104.203217,76.957634 
z"/>
<path fill="#C1FFFF" opacity="1.000000" stroke="none" 
	d="
M105.877251,77.900833 
	C105.991150,77.596359 106.176651,77.344658 106.642792,77.033478 
	C109.964317,77.907341 113.076797,78.893456 116.557251,79.931190 
	C117.227470,81.107101 117.529724,82.231392 117.901009,84.085327 
	C117.935280,85.888840 117.900528,86.962723 117.535614,87.932304 
	C113.121643,85.884666 109.037834,83.941315 105.021957,81.651825 
	C105.352341,80.170731 105.614799,79.035782 105.877251,77.900833 
z"/>
<path fill="#FDFFFF" opacity="1.000000" stroke="none" 
	d="
M39.109570,89.057320 
	C42.475498,88.688065 45.841427,88.318817 49.836746,88.188484 
	C52.025188,89.612694 53.584244,90.797989 55.284004,92.339432 
	C58.246796,98.488167 57.288940,104.159637 54.598873,109.964790 
	C52.534096,111.416519 50.747555,112.687965 48.961014,113.959419 
	C47.264351,114.025192 45.567684,114.090958 43.111099,114.047928 
	C40.538914,112.969376 38.726650,111.999626 36.749641,110.721512 
	C31.264345,102.311142 31.921343,96.753700 39.109570,89.057320 
M44.774128,104.721748 
	C48.480610,104.373878 48.943653,101.840134 48.095341,99.067940 
	C47.832260,98.208237 45.909939,97.856285 44.747261,97.271866 
	C44.305904,99.429718 43.845097,101.584091 43.458420,103.751701 
	C43.425858,103.934235 43.890545,104.205482 44.774128,104.721748 
z"/>
<path fill="#E0FEFE" opacity="1.000000" stroke="none" 
	d="
M82.041985,120.921616 
	C77.746452,125.160896 72.562187,124.945084 67.241043,123.789894 
	C65.470383,123.405487 63.762703,122.730919 61.684139,122.083557 
	C61.248932,121.230515 61.155823,120.482895 61.103065,119.094315 
	C61.212055,118.274620 61.280697,118.095909 61.746239,117.958778 
	C64.957672,118.305809 67.772194,118.611252 71.002052,118.915405 
	C74.958916,119.583290 78.500450,120.252457 82.041985,120.921616 
z"/>
<path fill="#93C3C4" opacity="1.000000" stroke="none" 
	d="
M36.914387,111.029877 
	C38.726650,111.999626 40.538914,112.969376 42.686848,114.063866 
	C41.169682,115.114784 39.316849,116.040955 37.089775,117.030952 
	C33.854404,114.980225 30.993269,112.865662 28.319584,110.325005 
	C31.309484,110.275894 34.111935,110.652885 36.914387,111.029877 
z"/>
<path fill="#93C3C4" opacity="1.000000" stroke="none" 
	d="
M61.349335,117.917191 
	C61.280697,118.095909 61.212055,118.274620 61.042789,118.722092 
	C57.139542,117.454170 53.336918,115.917496 49.247654,114.170120 
	C50.747555,112.687965 52.534096,111.416519 54.890682,110.170189 
	C57.255100,110.801865 59.049473,111.408417 60.898239,112.436218 
	C61.084862,114.544044 61.217098,116.230621 61.349335,117.917191 
z"/>
<path fill="#93C3C4" opacity="1.000000" stroke="none" 
	d="
M82.249496,121.153793 
	C78.500450,120.252457 74.958916,119.583290 70.969765,118.562424 
	C70.602997,117.509972 70.683846,116.809219 71.112183,116.084724 
	C73.025551,115.606140 74.591446,115.151299 76.438591,114.773605 
	C77.292778,114.914703 77.865723,114.978638 78.632530,115.263504 
	C79.199883,115.579605 79.573380,115.674789 80.282219,115.814529 
	C81.067604,115.842293 81.517639,115.825485 82.366318,115.870178 
	C84.916817,115.299744 87.068680,114.667816 89.399170,114.031456 
	C89.577805,114.027023 89.934334,114.002594 89.901062,114.350845 
	C89.279182,116.457054 88.690575,118.215019 87.920563,120.239975 
	C87.474556,121.315155 87.209953,122.123337 86.945351,122.931526 
	C86.945351,122.931526 86.538765,122.994606 86.333420,123.006340 
	C85.403702,123.036171 84.679329,123.054276 83.592819,123.077751 
	C82.972794,122.517403 82.714905,121.951683 82.249496,121.153793 
z"/>
<path fill="#C1FFFF" opacity="1.000000" stroke="none" 
	d="
M125.001434,90.022697 
	C127.749809,91.961937 130.498184,93.901176 133.548279,95.980713 
	C133.822983,100.005539 134.793106,104.288086 133.451935,107.648064 
	C132.387848,110.313889 128.493179,111.849861 125.503281,113.936012 
	C125.019279,108.603836 124.887306,103.223152 124.728958,96.947815 
	C124.802193,94.043015 124.901810,92.032852 125.001434,90.022697 
z"/>
<path fill="#CFFDFD" opacity="1.000000" stroke="none" 
	d="
M87.239655,123.032120 
	C87.209953,122.123337 87.474556,121.315155 88.277748,120.193375 
	C94.199699,115.932892 99.583061,111.986000 105.287048,108.081604 
	C106.713539,109.097168 107.819397,110.070236 108.884979,111.406906 
	C108.355286,115.260101 106.132149,116.443680 102.849869,117.004318 
	C101.181862,117.289223 99.755516,118.988960 98.219925,120.049103 
	C98.040474,120.301987 97.854080,120.549644 97.477905,120.934799 
	C94.041367,121.762589 90.787659,122.447655 87.239655,123.032120 
z"/>
<path fill="#8FB4B5" opacity="1.000000" stroke="none" 
	d="
M98.644135,120.044991 
	C99.755516,118.988960 101.181862,117.289223 102.849869,117.004318 
	C106.132149,116.443680 108.355286,115.260101 109.203918,111.409103 
	C109.988449,111.057312 110.413773,111.066895 110.909035,111.049118 
	C110.978981,111.021759 111.111671,110.951347 111.111679,110.951347 
	C111.314857,112.719711 111.518036,114.488068 111.856293,116.609451 
	C111.945511,117.426666 111.899651,117.890854 111.804581,118.700966 
	C107.526360,119.378220 103.297356,119.709549 98.644135,120.044991 
z"/>
<path fill="#CFFDFD" opacity="1.000000" stroke="none" 
	d="
M104.954025,81.997971 
	C109.037834,83.941315 113.121643,85.884666 117.613052,88.315338 
	C118.380577,90.851913 118.740494,92.901146 119.100410,94.950386 
	C119.366203,99.014687 119.632004,103.078995 119.874771,107.563744 
	C117.183525,108.961945 114.515297,109.939697 111.479370,110.934402 
	C111.111671,110.951347 110.978981,111.021759 110.948624,110.612427 
	C110.265732,105.355316 109.613205,100.507538 108.948128,95.291023 
	C109.092842,90.220291 105.617043,89.120621 102.181442,87.712982 
	C103.148758,85.586472 104.051392,83.792221 104.954025,81.997971 
z"/>
<path fill="#8FB4B5" opacity="1.000000" stroke="none" 
	d="
M119.409805,95.066345 
	C118.740494,92.901146 118.380577,90.851913 117.943214,88.419632 
	C117.900528,86.962723 117.935280,85.888840 118.012817,84.415573 
	C119.926987,83.997986 121.798393,83.979797 124.062500,83.957336 
	C124.596840,85.687546 124.738464,87.422043 124.940758,89.589615 
	C124.901810,92.032852 124.802193,94.043015 124.653175,96.479843 
	C122.975586,96.331779 121.347397,95.757034 119.409805,95.066345 
z"/>
<path fill="#99C4C5" opacity="1.000000" stroke="none" 
	d="
M36.749641,110.721512 
	C34.111935,110.652885 31.309484,110.275894 28.207075,110.005028 
	C23.009346,100.933884 26.255713,91.692940 36.630959,86.044540 
	C37.505451,86.815903 38.062855,87.723610 38.864914,88.844315 
	C31.921343,96.753700 31.264345,102.311142 36.749641,110.721512 
z"/>
<path fill="#99C4C5" opacity="1.000000" stroke="none" 
	d="
M55.143299,91.983292 
	C53.584244,90.797989 52.025188,89.612694 50.219391,88.214432 
	C53.289730,87.375015 56.606819,86.748550 60.411907,86.055367 
	C60.899906,85.988640 61.135662,85.966400 61.080200,86.381516 
	C60.926807,88.188179 60.828880,89.579727 60.388706,91.066269 
	C58.412075,91.435280 56.777687,91.709282 55.143299,91.983292 
z"/>
<path fill="#ECFFFF" opacity="1.000000" stroke="none" 
	d="
M60.995026,83.394485 
	C63.806908,82.368668 66.548264,81.714737 69.645348,81.415703 
	C69.941055,82.519920 69.881042,83.269226 69.445930,84.041267 
	C66.425774,84.698135 63.780720,85.332268 61.135662,85.966400 
	C61.135662,85.966400 60.899906,85.988640 60.782692,86.005081 
	C60.751820,85.269798 60.838161,84.518082 60.995026,83.394485 
z"/>
<path fill="#93C3C4" opacity="1.000000" stroke="none" 
	d="
M105.021957,81.651825 
	C104.051392,83.792221 103.148758,85.586472 101.982300,88.008255 
	C98.835052,94.804092 95.951637,100.972389 92.924026,106.796509 
	C92.196098,104.043015 91.612350,101.633705 91.357544,99.086479 
	C92.647629,97.061035 93.608765,95.173492 94.569901,93.285950 
	C92.379654,92.210693 90.189407,91.135437 87.622749,90.005814 
	C86.488060,89.980515 85.729774,90.009575 84.638084,89.888199 
	C83.815659,88.165871 83.326645,86.593987 82.910690,84.708954 
	C83.337036,83.641075 83.690308,82.886330 84.043579,82.131592 
	C87.085358,82.281532 90.127129,82.431480 93.576996,82.542053 
	C97.531044,82.658844 101.305367,83.598145 103.746048,79.342751 
	C103.908997,78.549469 103.989372,78.094009 104.136482,77.298096 
	C104.619354,77.197853 105.035484,77.438072 105.664429,77.789566 
	C105.614799,79.035782 105.352341,80.170731 105.021957,81.651825 
z"/>
<path fill="#ECFFFF" opacity="1.000000" stroke="none" 
	d="
M83.873413,81.811012 
	C83.690308,82.886330 83.337036,83.641075 82.548309,84.654938 
	C79.567223,84.295395 77.021584,83.676727 74.407715,82.711853 
	C74.304176,81.896278 74.268867,81.426903 74.233566,80.957535 
	C77.552116,78.256470 80.725922,78.127678 83.873413,81.811012 
z"/>
<path fill="#9CCBCC" opacity="1.000000" stroke="none" 
	d="
M73.860619,80.924492 
	C74.268867,81.426903 74.304176,81.896278 74.343704,83.140900 
	C74.243050,85.945213 74.138191,87.974266 73.653023,90.007889 
	C72.260002,89.985863 71.247292,89.959259 70.190704,89.511620 
	C70.038223,87.399902 69.929626,85.709221 69.821030,84.018539 
	C69.881042,83.269226 69.941055,82.519920 70.041473,81.396713 
	C70.509644,80.978523 70.937424,80.934242 71.682411,80.826096 
	C72.495644,80.805305 72.991653,80.848381 73.860619,80.924492 
z"/>
<path fill="#9CCBCC" opacity="1.000000" stroke="none" 
	d="
M55.284004,92.339432 
	C56.777687,91.709282 58.412075,91.435280 60.446945,91.534363 
	C60.846241,98.609955 60.845047,105.312462 60.843849,112.014969 
	C59.049473,111.408417 57.255100,110.801865 55.168919,109.989914 
	C57.288940,104.159637 58.246796,98.488167 55.284004,92.339432 
z"/>
<path fill="#AAD8DA" opacity="1.000000" stroke="none" 
	d="
M44.449173,104.578629 
	C43.890545,104.205482 43.425858,103.934235 43.458420,103.751701 
	C43.845097,101.584091 44.305904,99.429718 44.747261,97.271866 
	C45.909939,97.856285 47.832260,98.208237 48.095341,99.067940 
	C48.943653,101.840134 48.480610,104.373878 44.449173,104.578629 
z"/>
<path fill="#FDFFFF" opacity="1.000000" stroke="none" 
	d="
M60.898239,112.436218 
	C60.845047,105.312462 60.846241,98.609955 60.789192,91.439362 
	C60.828880,89.579727 60.926807,88.188179 61.080200,86.381516 
	C63.780720,85.332268 66.425774,84.698135 69.445930,84.041267 
	C69.929626,85.709221 70.038223,87.399902 70.132858,89.981857 
	C70.263016,96.627892 70.407143,102.382668 70.497772,108.575089 
	C70.551086,111.377975 70.657890,113.743217 70.764702,116.108459 
	C70.683846,116.809219 70.602997,117.509972 70.554436,118.563713 
	C67.772194,118.611252 64.957672,118.305809 61.746239,117.958778 
	C61.217098,116.230621 61.084862,114.544044 60.898239,112.436218 
z"/>
<path fill="#FDFFFF" opacity="1.000000" stroke="none" 
	d="
M74.033333,90.003319 
	C74.138191,87.974266 74.243050,85.945213 74.411926,83.487106 
	C77.021584,83.676727 79.567223,84.295395 82.475243,84.968079 
	C83.326645,86.593987 83.815659,88.165871 84.671799,90.290573 
	C85.352226,93.514328 85.665520,96.185257 85.608406,98.991989 
	C83.316170,101.993988 82.687950,104.741028 85.923645,107.472900 
	C84.570808,110.481812 83.269241,113.145241 81.967667,115.808670 
	C81.517639,115.825485 81.067604,115.842293 80.037582,115.680893 
	C79.117943,115.349319 78.778305,115.195953 78.438667,115.042587 
	C77.865723,114.978638 77.292778,114.914703 76.273613,114.438171 
	C75.308792,112.071419 74.790199,110.117249 74.366898,107.742767 
	C74.319237,101.549408 74.176285,95.776360 74.033333,90.003319 
z"/>
<path fill="#E0FEFE" opacity="1.000000" stroke="none" 
	d="
M93.068214,107.140686 
	C95.951637,100.972389 98.835052,94.804092 101.917610,88.340515 
	C105.617043,89.120621 109.092842,90.220291 108.727600,95.583618 
	C107.058838,99.320145 105.505142,102.357216 104.214943,105.502373 
	C103.954109,106.138199 104.690033,107.182907 104.966415,108.039108 
	C99.583061,111.986000 94.199699,115.932892 88.459152,119.926376 
	C88.690575,118.215019 89.279182,116.457054 90.148483,114.112091 
	C91.308861,111.396957 92.188538,109.268822 93.068214,107.140686 
z"/>
<path fill="#9CCBCC" opacity="1.000000" stroke="none" 
	d="
M92.924026,106.796509 
	C92.188538,109.268822 91.308861,111.396957 90.181763,113.763840 
	C89.934334,114.002594 89.577805,114.027023 89.394745,113.677612 
	C90.169846,110.197922 89.678558,107.824249 85.974915,107.127403 
	C82.687950,104.741028 83.316170,101.993988 86.007355,99.044708 
	C87.848007,98.938705 88.919304,98.915787 90.249451,98.977821 
	C90.681725,99.116653 90.855171,99.170517 91.028610,99.224388 
	C91.612350,101.633705 92.196098,104.043015 92.924026,106.796509 
z"/>
<path fill="#ECFFFF" opacity="1.000000" stroke="none" 
	d="
M85.923645,107.472900 
	C89.678558,107.824249 90.169846,110.197922 89.216110,113.682037 
	C87.068680,114.667816 84.916817,115.299744 82.366310,115.870178 
	C83.269241,113.145241 84.570808,110.481812 85.923645,107.472900 
z"/>
<path fill="#9CCBCC" opacity="1.000000" stroke="none" 
	d="
M74.271599,108.163086 
	C74.790199,110.117249 75.308792,112.071419 75.992371,114.361015 
	C74.591446,115.151299 73.025551,115.606140 71.112183,116.084724 
	C70.657890,113.743217 70.551086,111.377975 70.807800,108.554138 
	C72.204750,108.118057 73.238174,108.140572 74.271599,108.163086 
z"/>
<path fill="#ECFFFF" opacity="1.000000" stroke="none" 
	d="
M78.632530,115.263504 
	C78.778305,115.195953 79.117943,115.349319 79.702225,115.636330 
	C79.573380,115.674789 79.199883,115.579605 78.632530,115.263504 
z"/>
<path fill="#93C3C4" opacity="1.000000" stroke="none" 
	d="
M105.287048,108.081604 
	C104.690033,107.182907 103.954109,106.138199 104.214943,105.502373 
	C105.505142,102.357216 107.058838,99.320145 108.740158,95.952362 
	C109.613205,100.507538 110.265732,105.355316 110.878677,110.639786 
	C110.413773,111.066895 109.988449,111.057312 109.244194,111.045517 
	C107.819397,110.070236 106.713539,109.097168 105.287048,108.081604 
z"/>
<path fill="#E0FEFE" opacity="1.000000" stroke="none" 
	d="
M91.357544,99.086479 
	C90.855171,99.170517 90.681725,99.116653 90.230972,98.594025 
	C89.302162,95.436913 88.650658,92.748543 87.999161,90.060181 
	C90.189407,91.135437 92.379654,92.210693 94.569901,93.285950 
	C93.608765,95.173492 92.647629,97.061035 91.357544,99.086479 
z"/>
<path fill="#ECFFFF" opacity="1.000000" stroke="none" 
	d="
M87.622749,90.005814 
	C88.650658,92.748543 89.302162,95.436913 89.972137,98.509064 
	C88.919304,98.915787 87.848007,98.938705 86.377762,98.908905 
	C85.665520,96.185257 85.352226,93.514328 85.005219,90.441025 
	C85.729774,90.009575 86.488060,89.980515 87.622749,90.005814 
z"/>
<path fill="#AAD8DA" opacity="1.000000" stroke="none" 
	d="
M74.366898,107.742767 
	C73.238174,108.140572 72.204750,108.118057 70.861298,108.116486 
	C70.407143,102.382668 70.263016,96.627892 70.176735,90.402893 
	C71.247292,89.959259 72.260002,89.985863 73.653023,90.007889 
	C74.176285,95.776360 74.319237,101.549408 74.366898,107.742767 
z"/>
</svg>